<svg id="blog" xmlns="http://www.w3.org/2000/svg" width="21.32" height="21.32" viewBox="0 0 21.32 21.32">
  <g id="Group_285" data-name="Group 285">
    <g id="Group_284" data-name="Group 284">
      <path id="Path_3984" data-name="Path 3984" d="M19.446,0H1.874A1.876,1.876,0,0,0,0,1.874V19.446A1.876,1.876,0,0,0,1.874,21.32H19.446a1.876,1.876,0,0,0,1.874-1.874V1.874A1.876,1.876,0,0,0,19.446,0Zm.625,19.446a.625.625,0,0,1-.625.625H1.874a.625.625,0,0,1-.625-.625V6.246H20.071Zm0-14.45H1.249V1.874a.625.625,0,0,1,.625-.625H19.446a.625.625,0,0,1,.625.625Z" fill="#42d41f"/>
    </g>
  </g>
  <g id="Group_287" data-name="Group 287" transform="translate(2.498 2.498)">
    <g id="Group_286" data-name="Group 286">
      <circle id="Ellipse_310" data-name="Ellipse 310" cx="1" cy="1" r="1" transform="translate(-0.499 -0.498)" fill="#42d41f"/>
    </g>
  </g>
  <g id="Group_289" data-name="Group 289" transform="translate(4.997 2.498)">
    <g id="Group_288" data-name="Group 288">
      <ellipse id="Ellipse_311" data-name="Ellipse 311" cx="0.5" cy="1" rx="0.5" ry="1" transform="translate(0.003 -0.498)" fill="#42d41f"/>
    </g>
  </g>
  <g id="Group_291" data-name="Group 291" transform="translate(7.495 2.498)">
    <g id="Group_290" data-name="Group 290">
      <circle id="Ellipse_312" data-name="Ellipse 312" cx="1" cy="1" r="1" transform="translate(-0.496 -0.498)" fill="#42d41f"/>
    </g>
  </g>
  <g id="Group_293" data-name="Group 293" transform="translate(2.498 7.495)">
    <g id="Group_292" data-name="Group 292">
      <path id="Path_3985" data-name="Path 3985" d="M66.871,180H60.625a.625.625,0,0,0-.625.625v5.08a.625.625,0,0,0,.625.625h6.246a.625.625,0,0,0,.625-.625v-5.08A.625.625,0,0,0,66.871,180Zm-.625,5.08h-5v-3.831h5Z" transform="translate(-60 -180)" fill="#42d41f"/>
    </g>
  </g>
  <g id="Group_295" data-name="Group 295" transform="translate(11.243 12.576)">
    <g id="Group_294" data-name="Group 294">
      <path id="Path_3986" data-name="Path 3986" d="M276.954,302h-6.329a.625.625,0,1,0,0,1.249h6.329a.625.625,0,0,0,0-1.249Z" transform="translate(-270 -302)" fill="#42d41f"/>
    </g>
  </g>
  <g id="Group_297" data-name="Group 297" transform="translate(11.243 10.036)">
    <g id="Group_296" data-name="Group 296">
      <path id="Path_3987" data-name="Path 3987" d="M276.954,241h-6.329a.625.625,0,1,0,0,1.249h6.329a.625.625,0,0,0,0-1.249Z" transform="translate(-270 -241)" fill="#42d41f"/>
    </g>
  </g>
  <g id="Group_299" data-name="Group 299" transform="translate(2.498 15.074)">
    <g id="Group_298" data-name="Group 298">
      <path id="Path_3988" data-name="Path 3988" d="M75.7,362H60.625a.625.625,0,1,0,0,1.249H75.7a.625.625,0,1,0,0-1.249Z" transform="translate(-60 -362)" fill="#42d41f"/>
    </g>
  </g>
  <g id="Group_301" data-name="Group 301" transform="translate(2.498 17.573)">
    <g id="Group_300" data-name="Group 300">
      <path id="Path_3989" data-name="Path 3989" d="M75.7,422H60.625a.625.625,0,1,0,0,1.249H75.7a.625.625,0,1,0,0-1.249Z" transform="translate(-60 -422)" fill="#42d41f"/>
    </g>
  </g>
</svg>
