<svg xmlns="http://www.w3.org/2000/svg" width="20.5" height="20.5" viewBox="0 0 20.5 20.5">
  <g id="earth-globe" transform="translate(-10.75 -10.75)">
    <path id="Path_3991" data-name="Path 3991" d="M28.069,13.931A9.992,9.992,0,1,0,31,21,9.926,9.926,0,0,0,28.069,13.931Zm2.024,6.62H26.216a17.363,17.363,0,0,0-.633-4.347,9.917,9.917,0,0,0,2.061-1.42A9.082,9.082,0,0,1,30.094,20.551Zm-8.645.9h3.873a16.414,16.414,0,0,1-.567,4,10.1,10.1,0,0,0-3.306-.718ZM27,14.159a9.093,9.093,0,0,1-1.7,1.18,10.426,10.426,0,0,0-.527-1.224,7.194,7.194,0,0,0-1.314-1.878A9.065,9.065,0,0,1,27,14.159Zm-5.551-2.122a4.232,4.232,0,0,1,2.527,2.473,10.2,10.2,0,0,1,.514,1.212,9.16,9.16,0,0,1-3.041.682Zm3.31,4.547a16.416,16.416,0,0,1,.559,3.971H21.449V17.306A10.1,10.1,0,0,0,24.759,16.584Zm-4.208,3.967H16.678a16.416,16.416,0,0,1,.559-3.971,9.914,9.914,0,0,0,3.31.718v3.253Zm0-8.514V16.4a9.137,9.137,0,0,1-3.041-.682,10.2,10.2,0,0,1,.514-1.212A4.232,4.232,0,0,1,20.555,12.037Zm-2.012.2a7.264,7.264,0,0,0-1.314,1.878,12.006,12.006,0,0,0-.527,1.224,9.229,9.229,0,0,1-1.7-1.18,9.065,9.065,0,0,1,3.539-1.922Zm-4.184,2.547A10.076,10.076,0,0,0,16.42,16.2a17.2,17.2,0,0,0-.633,4.347H11.91A9.082,9.082,0,0,1,14.359,14.784ZM11.91,21.449h3.878a17.341,17.341,0,0,0,.641,4.371,9.827,9.827,0,0,0-2.053,1.412A9.067,9.067,0,0,1,11.91,21.449Zm3.11,6.408a9.128,9.128,0,0,1,1.69-1.171,11.061,11.061,0,0,0,.518,1.2,7.291,7.291,0,0,0,1.314,1.882,9.11,9.11,0,0,1-3.522-1.91Zm5.535,2.106a4.232,4.232,0,0,1-2.527-2.473,10.491,10.491,0,0,1-.506-1.188,9.009,9.009,0,0,1,3.033-.678v4.339Zm-3.306-4.518a16.414,16.414,0,0,1-.567-4h3.873v3.278A9.891,9.891,0,0,0,17.249,25.445Zm4.2,4.518V25.624a9.109,9.109,0,0,1,3.033.678,10.492,10.492,0,0,1-.506,1.188A4.232,4.232,0,0,1,21.453,29.963Zm2.012-.2a7.221,7.221,0,0,0,1.314-1.882,11.06,11.06,0,0,0,.518-1.2,9.128,9.128,0,0,1,1.69,1.171,9,9,0,0,1-3.522,1.91Zm4.171-2.531a9.985,9.985,0,0,0-2.053-1.412,17.369,17.369,0,0,0,.641-4.371H30.1a9.11,9.11,0,0,1-2.465,5.784Z" fill="#0c95fe" stroke="#0c95fe" stroke-width="0.5"/>
  </g>
</svg>
