<svg xmlns="http://www.w3.org/2000/svg" width="20.994" height="20.842" viewBox="0 0 20.994 20.842">
  <g id="XMLID_1_" transform="translate(0.25 0.072)">
    <path id="Path_2320" data-name="Path 2320" d="M13.927,9.09l7.523,1.494a1.262,1.262,0,0,1,1.016,1.247v8.71a1.279,1.279,0,0,1-1.281,1.281H13.5a.423.423,0,0,0,.427-.427v-.427h7.258a.428.428,0,0,0,.427-.427v-8.71a.429.429,0,0,0-.333-.418L13.927,9.961Z" transform="translate(-1.972 -1.301)" fill="#0c95fe" stroke="#0c95fe" stroke-width="0.5"/>
    <path id="Path_2321" data-name="Path 2321" d="M19.135,14a.427.427,0,1,1,0,.854H17.427a.427.427,0,0,1,0-.854Z" transform="translate(-2.483 -2.019)" fill="#0c95fe" stroke="#0c95fe" stroke-width="0.5"/>
    <path id="Path_2322" data-name="Path 2322" d="M19.135,17a.427.427,0,1,1,0,.854H17.427a.427.427,0,0,1,0-.854Z" transform="translate(-2.483 -2.457)" fill="#0c95fe" stroke="#0c95fe" stroke-width="0.5"/>
    <path id="Path_2323" data-name="Path 2323" d="M19.135,20a.427.427,0,1,1,0,.854H17.427a.427.427,0,0,1,0-.854Z" transform="translate(-2.483 -2.895)" fill="#0c95fe" stroke="#0c95fe" stroke-width="0.5"/>
    <path id="Path_2324" data-name="Path 2324" d="M13.854,21.382a.427.427,0,1,1-.854,0V9.427a.454.454,0,0,1,.154-.333.449.449,0,0,1,.359-.085l.342.068V21.382Z" transform="translate(-1.899 -1.288)" fill="#0c95fe" stroke="#0c95fe" stroke-width="0.5"/>
    <path id="Path_2325" data-name="Path 2325" d="M12.489,23v.427a.423.423,0,0,0,.427.427H9.5a.423.423,0,0,0,.427-.427V23Z" transform="translate(-1.388 -3.333)" fill="#0c95fe" stroke="#0c95fe" stroke-width="0.5"/>
    <path id="Path_2326" data-name="Path 2326" d="M10.135,5a.427.427,0,1,1,0,.854H8.427a.427.427,0,1,1,0-.854Z" transform="translate(-1.169 -0.704)" fill="#0c95fe" stroke="#0c95fe" stroke-width="0.5"/>
    <path id="Path_2327" data-name="Path 2327" d="M10.562,8.427a.423.423,0,0,1-.427.427H8.427a.427.427,0,1,1,0-.854h1.708A.423.423,0,0,1,10.562,8.427Z" transform="translate(-1.169 -1.142)" fill="#0c95fe" stroke="#0c95fe" stroke-width="0.5"/>
    <path id="Path_2328" data-name="Path 2328" d="M10.135,11a.427.427,0,1,1,0,.854H8.427a.427.427,0,1,1,0-.854Z" transform="translate(-1.169 -1.58)" fill="#0c95fe" stroke="#0c95fe" stroke-width="0.5"/>
    <path id="Path_2329" data-name="Path 2329" d="M10.135,14a.427.427,0,1,1,0,.854H8.427a.427.427,0,1,1,0-.854Z" transform="translate(-1.169 -2.019)" fill="#0c95fe" stroke="#0c95fe" stroke-width="0.5"/>
    <path id="Path_2330" data-name="Path 2330" d="M5.562,14.427a.423.423,0,0,1-.427.427H3.427a.427.427,0,1,1,0-.854H5.135A.423.423,0,0,1,5.562,14.427Z" transform="translate(-0.438 -2.019)" fill="#0c95fe" stroke="#0c95fe" stroke-width="0.5"/>
    <path id="Path_2331" data-name="Path 2331" d="M5.135,5a.427.427,0,0,1,0,.854H3.427a.427.427,0,1,1,0-.854Z" transform="translate(-0.438 -0.704)" fill="#0c95fe" stroke="#0c95fe" stroke-width="0.5"/>
    <path id="Path_2332" data-name="Path 2332" d="M5.135,8a.427.427,0,1,1,0,.854H3.427a.427.427,0,1,1,0-.854Z" transform="translate(-0.438 -1.142)" fill="#0c95fe" stroke="#0c95fe" stroke-width="0.5"/>
    <path id="Path_2333" data-name="Path 2333" d="M5.135,11a.427.427,0,1,1,0,.854H3.427a.427.427,0,1,1,0-.854Z" transform="translate(-0.438 -1.58)" fill="#0c95fe" stroke="#0c95fe" stroke-width="0.5"/>
    <path id="Path_2334" data-name="Path 2334" d="M8.27,18.281a.428.428,0,0,0-.427-.427H5.281a.423.423,0,0,0-.427.427v3.843H4V18.281A1.279,1.279,0,0,1,5.281,17H7.843a1.279,1.279,0,0,1,1.281,1.281v3.843H8.27Z" transform="translate(-0.584 -2.457)" fill="#0c95fe" stroke="#0c95fe" stroke-width="0.5"/>
    <path id="Path_2335" data-name="Path 2335" d="M4.854,23h4.27v.427a.423.423,0,0,1-.427.427H4.427A.423.423,0,0,1,4,23.427V23Z" transform="translate(-0.584 -3.333)" fill="#0c95fe" stroke="#0c95fe" stroke-width="0.5"/>
    <path id="Path_2336" data-name="Path 2336" d="M1.494.2l9.385,1.426a1.276,1.276,0,0,1,1.076,1.264v4.9l-.342-.068a.449.449,0,0,0-.359.085.454.454,0,0,0-.154.333V2.887a.432.432,0,0,0-.359-.427L1.358,1.043a.236.236,0,0,0-.077-.009.4.4,0,0,0-.273.1.408.408,0,0,0-.154.324V19.24a.428.428,0,0,0,.427.427H3.416v.427a.423.423,0,0,0,.427.427H1.281A1.279,1.279,0,0,1,0,19.24V1.461A1.257,1.257,0,0,1,.453.487,1.282,1.282,0,0,1,1.494.2Z" transform="translate(0 0)" fill="#0c95fe" stroke="#0c95fe" stroke-width="0.5"/>
  </g>
</svg>
