<svg id="communications" xmlns="http://www.w3.org/2000/svg" width="35" height="35" viewBox="0 0 35 35">
  <path id="Path_7530" data-name="Path 7530" d="M22.9,153.621H5.127a1.025,1.025,0,0,1,0-2.051H20.578a3.06,3.06,0,0,1-.617-1.846v-.889H5.127a1.025,1.025,0,0,1,0-2.051H19.961V142H1.025A1.025,1.025,0,0,0,0,143.025v23.242a1.025,1.025,0,0,0,1.75.725l3.8-3.8H27a1.025,1.025,0,0,0,1.025-1.025V152.8H23.905A1.026,1.026,0,0,1,22.9,153.621Zm0,4.785H5.127a1.025,1.025,0,0,1,0-2.051H22.9a1.025,1.025,0,0,1,0,2.051Z" transform="translate(0 -132.293)" fill="#2962ff"/>
  <path id="Path_7531" data-name="Path 7531" d="M333.963,7.861h-.342V5.127a5.127,5.127,0,0,0-10.254,0,1.025,1.025,0,0,0,2.051,0,3.076,3.076,0,0,1,6.152,0V7.861h-8.545A1.025,1.025,0,0,0,322,8.887v8.545a1.025,1.025,0,0,0,1.025,1.025h10.938a1.025,1.025,0,0,0,1.025-1.025V8.887A1.025,1.025,0,0,0,333.963,7.861Zm-4.443,4.956v1.709a1.025,1.025,0,0,1-2.051,0V12.817a1.025,1.025,0,0,1,0-2.051h2.051a1.025,1.025,0,0,1,0,2.051Z" transform="translate(-299.988)" fill="#2962ff"/>
  <path id="Path_7532" data-name="Path 7532" d="M3.76,7.52A3.766,3.766,0,0,0,7.376,4.785H12.3V5.811a1.025,1.025,0,0,0,2.051,0V4.785h1.367V6.562a1.025,1.025,0,0,0,2.051,0V4.785H18.8a1.025,1.025,0,0,0,0-2.051H7.376A3.759,3.759,0,1,0,3.76,7.52Z" transform="translate(0)" fill="#2962ff"/>
</svg>
