<svg id="notification" xmlns="http://www.w3.org/2000/svg" width="37.073" height="40.443" viewBox="0 0 37.073 40.443">
  <path id="Path_3093" data-name="Path 3093" d="M139.651,423.583a6.327,6.327,0,0,1-6.319-6.319,1.264,1.264,0,1,1,2.528,0,3.792,3.792,0,1,0,7.583,0,1.264,1.264,0,1,1,2.528,0A6.327,6.327,0,0,1,139.651,423.583Zm0,0" transform="translate(-122.8 -383.14)" fill="#4252f1"/>
  <path id="Path_3094" data-name="Path 3094" d="M30.754,94.333H2.949a2.95,2.95,0,0,1-1.918-5.19,1.163,1.163,0,0,1,.135-.1A11.325,11.325,0,0,0,5.055,80.5V75.8A11.81,11.81,0,0,1,16.851,64a5.076,5.076,0,0,1,.831.051,1.263,1.263,0,1,1-.415,2.492,2.652,2.652,0,0,0-.416-.015A9.279,9.279,0,0,0,7.583,75.8v4.7A13.86,13.86,0,0,1,2.691,91.065c-.025.02-.047.039-.074.057a.417.417,0,0,0-.089.261.426.426,0,0,0,.421.421h27.8a.426.426,0,0,0,.421-.421.4.4,0,0,0-.091-.261c-.025-.019-.047-.037-.073-.057A13.856,13.856,0,0,1,26.12,80.5V78.661a1.264,1.264,0,0,1,2.528,0V80.5a11.33,11.33,0,0,0,3.894,8.549,1.229,1.229,0,0,1,.13.1,2.948,2.948,0,0,1-1.918,5.188Zm0,0" transform="translate(0 -58.945)" fill="#4252f1"/>
  <path id="Path_3095" data-name="Path 3095" d="M264.426,16.851a8.426,8.426,0,1,1,8.425-8.425A8.435,8.435,0,0,1,264.426,16.851Zm0-14.324a5.9,5.9,0,1,0,5.9,5.9,5.9,5.9,0,0,0-5.9-5.9Zm0,0" transform="translate(-235.778)" fill="#4252f1"/>
</svg>
