<svg xmlns="http://www.w3.org/2000/svg" xmlns:xlink="http://www.w3.org/1999/xlink" width="68.423" height="90" viewBox="0 0 68.423 90">
  <defs>
    <linearGradient id="linear-gradient" x1="0.283" y1="0.585" x2="0.347" y2="0.5" gradientUnits="objectBoundingBox">
      <stop offset="0" stop-color="#233168"/>
      <stop offset="1" stop-color="#2f358a"/>
    </linearGradient>
    <linearGradient id="linear-gradient-2" y1="0.5" x2="1" y2="0.5" gradientUnits="objectBoundingBox">
      <stop offset="0" stop-color="#233c68"/>
      <stop offset="1" stop-color="#2f328a"/>
    </linearGradient>
  </defs>
  <g id="guarantee" transform="translate(-61.374)">
    <path id="Path_3139" data-name="Path 3139" d="M88.77,87.169,128.75,7.541,116.492.464a1.979,1.979,0,0,0-1.477-.456L89.46,2.083,63.9,29.517a9.889,9.889,0,0,0-2.531,6.317v9.055c0,17.068,5.618,29.624,14.9,35.058l0,.007.387.223.025.014Z" transform="translate(0 0)" fill="url(#linear-gradient)"/>
    <path id="Path_3140" data-name="Path 3140" d="M260.442,7.541,248.184.464a1.979,1.979,0,0,0-1.477-.456L221.152,2.083,233.4,9.154Z" transform="translate(-131.692 0)" fill="url(#linear-gradient-2)"/>
    <path id="Path_3141" data-name="Path 3141" d="M159.155,42.308,133.6,69.741a9.889,9.889,0,0,0-2.531,6.317v9.055c0,24.092,11.184,39.211,28.086,37.969,16.9-18.275,28.086-46.309,28.086-70.4V43.627c0-2.165-1.009-3.518-2.531-3.395Z" transform="translate(-57.444 -33.154)" fill="#4288f1"/>
    <g id="Group_195" data-name="Group 195" transform="translate(75.888 9.422)">
      <path id="Path_3142" data-name="Path 3142" d="M167.848,131.919c-7,0-12.934-3.235-17.157-9.355-4.416-6.4-6.751-15.536-6.751-26.423V87.085a7.629,7.629,0,0,1,1.924-4.775l24.658-26.47a1.133,1.133,0,0,1,.736-.356l23.106-1.877a1.131,1.131,0,0,1,1.223,1.128V63.71c0,11.271-2.525,23.672-7.3,35.863a106.658,106.658,0,0,1-19.242,31.966,1.132,1.132,0,0,1-.825.377ZM171.879,57.7,147.519,83.853a5.419,5.419,0,0,0-1.317,3.232v9.055c0,10.426,2.2,19.118,6.35,25.138,3.75,5.434,8.982,8.328,15.138,8.377,15.348-17.374,25.634-43.8,25.634-65.946V55.962Z" transform="translate(-143.94 -53.604)" fill="#fff"/>
    </g>
    <g id="Group_196" data-name="Group 196" transform="translate(90.875 18.154)">
      <path id="Path_3143" data-name="Path 3143" d="M239.242,148.331l-8.87-6.705a2.947,2.947,0,1,1,3.555-4.7l5.315,4.018L258.473,104.2a1.713,1.713,0,1,1,3.036,1.589Z" transform="translate(-229.202 -103.278)" fill="#fff"/>
    </g>
    <g id="Group_197" data-name="Group 197" transform="translate(84.321 24.27)">
      <path id="Path_3144" data-name="Path 3144" d="M209.306,186.527c-9.589,5.536-17.391-.361-17.391-13.147s7.8-27.692,17.391-33.228a12.861,12.861,0,0,1,8.526-1.949,8.657,8.657,0,0,1,3.9,1.741,10.977,10.977,0,0,1,2.913,3.607A21.27,21.27,0,0,1,226.7,153.3C226.7,166.084,218.895,180.99,209.306,186.527Zm0-41.149c-7.428,4.289-13.472,15.835-13.472,25.74s6.043,14.473,13.472,10.184,13.472-15.835,13.472-25.74a16.471,16.471,0,0,0-1.587-7.549,8.509,8.509,0,0,0-2.258-2.8,6.712,6.712,0,0,0-3.025-1.35A9.959,9.959,0,0,0,209.306,145.377Z" transform="translate(-191.915 -138.067)" fill="#fff"/>
    </g>
  </g>
</svg>
