<svg xmlns="http://www.w3.org/2000/svg" width="51.729" height="33.736" viewBox="0 0 51.729 33.736">
  <g id="user_1_" data-name="user (1)" transform="translate(0 -85.333)">
    <g id="Group_184" data-name="Group 184" transform="translate(17.992 85.333)">
      <g id="Group_183" data-name="Group 183">
        <path id="Path_3109" data-name="Path 3109" d="M178.538,85.333a7.872,7.872,0,1,0,7.872,7.872A7.88,7.88,0,0,0,178.538,85.333Zm0,13.494A5.623,5.623,0,1,1,184.16,93.2,5.63,5.63,0,0,1,178.538,98.827Z" transform="translate(-170.666 -85.333)" fill="#4252f1"/>
      </g>
    </g>
    <g id="Group_186" data-name="Group 186" transform="translate(35.985 94.329)">
      <g id="Group_185" data-name="Group 185">
        <path id="Path_3110" data-name="Path 3110" d="M346.957,170.667a5.623,5.623,0,1,0,5.623,5.623A5.63,5.63,0,0,0,346.957,170.667Zm0,9a3.374,3.374,0,1,1,3.374-3.374A3.378,3.378,0,0,1,346.957,179.663Z" transform="translate(-341.334 -170.667)" fill="#4252f1"/>
      </g>
    </g>
    <g id="Group_188" data-name="Group 188" transform="translate(4.658 94.329)">
      <g id="Group_187" data-name="Group 187">
        <path id="Path_3111" data-name="Path 3111" d="M49.8,170.667a5.623,5.623,0,1,0,5.623,5.623A5.629,5.629,0,0,0,49.8,170.667Zm0,9a3.374,3.374,0,1,1,3.374-3.374A3.378,3.378,0,0,1,49.8,179.663Z" transform="translate(-44.182 -170.667)" fill="#4252f1"/>
      </g>
    </g>
    <g id="Group_190" data-name="Group 190" transform="translate(11.245 103.326)">
      <g id="Group_189" data-name="Group 189">
        <path id="Path_3112" data-name="Path 3112" d="M121.285,256a14.636,14.636,0,0,0-14.619,14.619,1.125,1.125,0,1,0,2.249,0,12.37,12.37,0,0,1,24.74,0,1.125,1.125,0,1,0,2.249,0A14.636,14.636,0,0,0,121.285,256Z" transform="translate(-106.666 -256)" fill="#4252f1"/>
      </g>
    </g>
    <g id="Group_192" data-name="Group 192" transform="translate(35.825 107.824)">
      <g id="Group_191" data-name="Group 191" transform="translate(0 0)">
        <path id="Path_3113" data-name="Path 3113" d="M345.6,298.667a10.122,10.122,0,0,0-5.243,1.462,1.125,1.125,0,0,0,1.167,1.923,7.873,7.873,0,0,1,11.947,6.736,1.125,1.125,0,1,0,2.249,0A10.133,10.133,0,0,0,345.6,298.667Z" transform="translate(-339.813 -298.667)" fill="#4252f1"/>
      </g>
    </g>
    <g id="Group_194" data-name="Group 194" transform="translate(0 107.824)">
      <g id="Group_193" data-name="Group 193" transform="translate(0 0)">
        <path id="Path_3114" data-name="Path 3114" d="M15.361,300.127A10.124,10.124,0,0,0,0,308.788a1.125,1.125,0,1,0,2.249,0,7.874,7.874,0,0,1,11.945-6.738,1.125,1.125,0,1,0,1.167-1.923Z" transform="translate(0 -298.667)" fill="#4252f1"/>
      </g>
    </g>
  </g>
</svg>
