<svg xmlns="http://www.w3.org/2000/svg" width="38.978" height="38.919" viewBox="0 0 38.978 38.919">
  <g id="Page-1" transform="translate(0.29 0.25)">
    <g id="_043---Sign" data-name="043---Sign" transform="translate(0.007 0)">
      <path id="Shape" d="M25.615,0A12.781,12.781,0,0,0,14.6,19.3L.939,32.96a3.2,3.2,0,0,0,4.527,4.522l1.587-1.587c.006-.005.013-.007.019-.013s.008-.013.013-.019l1.889-1.889c.006-.005.013-.007.019-.013s.008-.013.013-.019L19.123,23.824A12.8,12.8,0,1,0,25.615,0ZM8.535,32.6,7.5,31.563a.64.64,0,0,0-.905.905L7.629,33.5,6.614,34.52,5.578,33.484a.64.64,0,1,0-.905.905l1.036,1.036L4.556,36.578a1.917,1.917,0,0,1-2.709-2.713L15.319,20.39A12.876,12.876,0,0,0,18.032,23.1Zm17.08-8.267A11.526,11.526,0,1,1,37.141,12.806,11.526,11.526,0,0,1,25.615,24.332Z" transform="translate(-0.007 0)" fill="#4252f1" stroke="#4252f1" stroke-width="0.5"/>
      <path id="Shape-2" data-name="Shape" d="M28.719,8.72A8.377,8.377,0,0,1,39.092,7.593a.641.641,0,1,0,.69-1.08A9.609,9.609,0,0,0,26.513,19.786a.64.64,0,1,0,1.079-.69A8.377,8.377,0,0,1,28.719,8.72Z" transform="translate(-8.997 -1.799)" fill="#4252f1" stroke="#4252f1" stroke-width="0.5"/>
      <path id="Shape-3" data-name="Shape" d="M44.131,11.547a.64.64,0,0,0-.192.885,8.328,8.328,0,0,1-11.505,11.5.641.641,0,0,0-.69,1.08A9.611,9.611,0,0,0,45.017,11.74a.64.64,0,0,0-.887-.193Z" transform="translate(-11.316 -4.117)" fill="#4252f1" stroke="#4252f1" stroke-width="0.5"/>
      <path id="Shape-4" data-name="Shape" d="M31.089,16.22,36.211,11.1a.64.64,0,0,0-.905-.905l-5.123,5.123a.64.64,0,1,0,.905.905Z" transform="translate(-10.791 -3.601)" fill="#4252f1" stroke="#4252f1" stroke-width="0.5"/>
      <path id="Shape-5" data-name="Shape" d="M41.306,16.192l-5.123,5.123a.64.64,0,1,0,.905.905L42.211,17.1a.64.64,0,0,0-.905-.905Z" transform="translate(-12.949 -5.759)" fill="#4252f1" stroke="#4252f1" stroke-width="0.5"/>
      <path id="Shape-6" data-name="Shape" d="M32.089,19.781,39.772,12.1a.64.64,0,0,0-.905-.905l-7.684,7.684a.64.64,0,1,0,.905.905Z" transform="translate(-11.15 -3.961)" fill="#4252f1" stroke="#4252f1" stroke-width="0.5"/>
    </g>
  </g>
</svg>
