<svg xmlns="http://www.w3.org/2000/svg" width="46.881" height="47.387" viewBox="0 0 46.881 47.387">
  <g id="bar-chart" transform="translate(-2.003 0)">
    <g id="Group_144" data-name="Group 144" transform="translate(2.003 0)">
      <g id="Group_143" data-name="Group 143">
        <path id="Path_2189" data-name="Path 2189" d="M152.695,218.936h-8.711a1.32,1.32,0,0,0-1.32,1.32v17.092a1.32,1.32,0,0,0,1.32,1.32h8.711a1.32,1.32,0,0,0,1.32-1.32V220.256A1.32,1.32,0,0,0,152.695,218.936Zm-1.32,17.092H145.3V221.576h6.071Z" transform="translate(-124.896 -191.281)" fill="#4252f1"/>
        <path id="Path_2190" data-name="Path 2190" d="M289.12,136.911h-8.777a1.32,1.32,0,0,0-1.32,1.32v27.453a1.32,1.32,0,0,0,1.32,1.32h8.777a1.32,1.32,0,0,0,1.32-1.32V138.231A1.32,1.32,0,0,0,289.12,136.911Zm-1.32,27.453h-6.137V139.551H287.8Z" transform="translate(-244.031 -119.617)" fill="#4252f1"/>
        <path id="Path_2191" data-name="Path 2191" d="M15.879,269.613H7.1a1.32,1.32,0,0,0-1.32,1.32v10.691a1.32,1.32,0,0,0,1.32,1.32h8.777a1.32,1.32,0,0,0,1.32-1.32V270.933A1.32,1.32,0,0,0,15.879,269.613ZM14.559,280.3H8.422v-8.051h6.137Z" transform="translate(-5.305 -235.557)" fill="#4252f1"/>
        <path id="Path_2192" data-name="Path 2192" d="M48.543,1.324a1.122,1.122,0,0,0-.858-.462L35.675,0a1.324,1.324,0,1,0-.2,2.64l8.5.577L28.349,15.446,16.4,6.075a1.32,1.32,0,0,0-1.716.066L2.414,17.888a1.32,1.32,0,0,0-.066,1.848,1.188,1.188,0,0,0,.99.462,1.32,1.32,0,0,0,.924-.4L15.679,8.847l11.813,9.3a1.32,1.32,0,0,0,1.65,0L46.036,5.005l-.66,8.2a1.386,1.386,0,0,0,1.254,1.386H46.7a1.32,1.32,0,0,0,1.32-1.188l.858-11.153A1.056,1.056,0,0,0,48.543,1.324Z" transform="translate(-2.003 0)" fill="#4252f1"/>
      </g>
    </g>
  </g>
</svg>
