<svg xmlns="http://www.w3.org/2000/svg" width="51.381" height="50.994" viewBox="0 0 51.381 50.994">
  <g id="XMLID_1_" transform="translate(0 -0.181)">
    <path id="Path_2320" data-name="Path 2320" d="M14.57,9.09l18.861,3.747a3.163,3.163,0,0,1,2.548,3.126V37.8a3.207,3.207,0,0,1-3.211,3.211H13.5a1.06,1.06,0,0,0,1.07-1.07v-1.07h18.2a1.074,1.074,0,0,0,1.07-1.07V15.962A1.076,1.076,0,0,0,33,14.913L14.57,11.274Z" transform="translate(15.402 10.165)" fill="#4252f1"/>
    <path id="Path_2321" data-name="Path 2321" d="M22.352,14a1.07,1.07,0,0,1,0,2.141H18.07a1.07,1.07,0,0,1,0-2.141Z" transform="translate(19.395 15.766)" fill="#4252f1"/>
    <path id="Path_2322" data-name="Path 2322" d="M22.352,17a1.07,1.07,0,0,1,0,2.141H18.07a1.07,1.07,0,0,1,0-2.141Z" transform="translate(19.395 19.189)" fill="#4252f1"/>
    <path id="Path_2323" data-name="Path 2323" d="M22.352,20a1.07,1.07,0,0,1,0,2.141H18.07a1.07,1.07,0,0,1,0-2.141Z" transform="translate(19.395 22.611)" fill="#4252f1"/>
    <path id="Path_2324" data-name="Path 2324" d="M15.141,40.042a1.07,1.07,0,1,1-2.141,0V10.07a1.138,1.138,0,0,1,.385-.835,1.125,1.125,0,0,1,.9-.214l.856.171v30.85Z" transform="translate(14.831 10.062)" fill="#4252f1"/>
    <path id="Path_2325" data-name="Path 2325" d="M16.993,23v1.07a1.06,1.06,0,0,0,1.07,1.07H9.5a1.06,1.06,0,0,0,1.07-1.07V23Z" transform="translate(10.838 26.034)" fill="#4252f1"/>
    <path id="Path_2326" data-name="Path 2326" d="M13.352,5a1.07,1.07,0,1,1,0,2.141H9.07A1.07,1.07,0,1,1,9.07,5Z" transform="translate(9.127 5.498)" fill="#4252f1"/>
    <path id="Path_2327" data-name="Path 2327" d="M14.423,9.07a1.06,1.06,0,0,1-1.07,1.07H9.07A1.07,1.07,0,1,1,9.07,8h4.282A1.06,1.06,0,0,1,14.423,9.07Z" transform="translate(9.127 8.921)" fill="#4252f1"/>
    <path id="Path_2328" data-name="Path 2328" d="M13.352,11a1.07,1.07,0,1,1,0,2.141H9.07A1.07,1.07,0,1,1,9.07,11Z" transform="translate(9.127 12.344)" fill="#4252f1"/>
    <path id="Path_2329" data-name="Path 2329" d="M13.352,14a1.07,1.07,0,1,1,0,2.141H9.07A1.07,1.07,0,1,1,9.07,14Z" transform="translate(9.127 15.766)" fill="#4252f1"/>
    <path id="Path_2330" data-name="Path 2330" d="M9.423,15.07a1.06,1.06,0,0,1-1.07,1.07H4.07A1.07,1.07,0,1,1,4.07,14H8.352A1.06,1.06,0,0,1,9.423,15.07Z" transform="translate(3.423 15.766)" fill="#4252f1"/>
    <path id="Path_2331" data-name="Path 2331" d="M8.352,5a1.07,1.07,0,1,1,0,2.141H4.07A1.07,1.07,0,1,1,4.07,5Z" transform="translate(3.423 5.498)" fill="#4252f1"/>
    <path id="Path_2332" data-name="Path 2332" d="M8.352,8a1.07,1.07,0,1,1,0,2.141H4.07A1.07,1.07,0,1,1,4.07,8Z" transform="translate(3.423 8.921)" fill="#4252f1"/>
    <path id="Path_2333" data-name="Path 2333" d="M8.352,11a1.07,1.07,0,1,1,0,2.141H4.07A1.07,1.07,0,1,1,4.07,11Z" transform="translate(3.423 12.344)" fill="#4252f1"/>
    <path id="Path_2334" data-name="Path 2334" d="M14.7,20.211a1.074,1.074,0,0,0-1.07-1.07H7.211a1.06,1.06,0,0,0-1.07,1.07v9.634H4V20.211A3.207,3.207,0,0,1,7.211,17h6.423a3.207,3.207,0,0,1,3.211,3.211v9.634H14.7Z" transform="translate(4.563 19.189)" fill="#4252f1"/>
    <path id="Path_2335" data-name="Path 2335" d="M6.141,23h10.7v1.07a1.06,1.06,0,0,1-1.07,1.07H5.07A1.06,1.06,0,0,1,4,24.07V23Z" transform="translate(4.563 26.034)" fill="#4252f1"/>
    <path id="Path_2336" data-name="Path 2336" d="M3.747.222,27.275,3.8a3.2,3.2,0,0,1,2.7,3.168V19.255l-.856-.171a1.125,1.125,0,0,0-.9.214,1.138,1.138,0,0,0-.385.835V6.966a1.082,1.082,0,0,0-.9-1.07L3.4,2.342a.593.593,0,0,0-.193-.021,1.01,1.01,0,0,0-.685.257,1.024,1.024,0,0,0-.385.814V47.964a1.074,1.074,0,0,0,1.07,1.07H8.563V50.1a1.06,1.06,0,0,0,1.07,1.07H3.211A3.207,3.207,0,0,1,0,47.964V3.391A3.152,3.152,0,0,1,1.135.95,3.214,3.214,0,0,1,3.747.222Z" transform="translate(0 0)" fill="#4252f1"/>
  </g>
</svg>
