<svg xmlns="http://www.w3.org/2000/svg" width="41.875" height="34.351" viewBox="0 0 41.875 34.351">
  <g id="decision" transform="translate(0 -46)">
    <path id="Path_3133" data-name="Path 3133" d="M9.814,46A9.815,9.815,0,0,0,8.588,65.552V79.124a1.227,1.227,0,1,0,2.454,0V65.552A9.815,9.815,0,0,0,9.814,46Zm0,17.175a7.361,7.361,0,1,1,7.361-7.361A7.369,7.369,0,0,1,9.814,63.175Z" fill="#4252f1"/>
    <path id="Path_3134" data-name="Path 3134" d="M291.629,55.814a9.814,9.814,0,1,0-11.041,9.738V79.124a1.227,1.227,0,0,0,2.454,0V65.552A9.829,9.829,0,0,0,291.629,55.814Zm-9.814,7.361a7.361,7.361,0,1,1,7.361-7.361A7.369,7.369,0,0,1,281.814,63.175Z" transform="translate(-249.754)" fill="#4252f1"/>
    <path id="Path_3135" data-name="Path 3135" d="M80.48,119.54a1.227,1.227,0,0,0-1.735,0l-1.735,1.735-1.735-1.735a1.227,1.227,0,0,0-1.735,1.735l1.735,1.735-1.735,1.735a1.227,1.227,0,0,0,1.735,1.735l1.735-1.735,1.735,1.735a1.227,1.227,0,1,0,1.735-1.735l-1.735-1.735,1.735-1.735A1.227,1.227,0,0,0,80.48,119.54Z" transform="translate(-67.195 -67.195)" fill="#4252f1"/>
    <path id="Path_3136" data-name="Path 3136" d="M338.2,119.539l-4.189,4.189-1.735-1.735a1.227,1.227,0,1,0-1.735,1.735l2.6,2.6a1.227,1.227,0,0,0,1.735,0l5.056-5.056a1.227,1.227,0,1,0-1.735-1.735Z" transform="translate(-303.176 -67.194)" fill="#4252f1"/>
  </g>
</svg>
