<svg xmlns="http://www.w3.org/2000/svg" width="44.434" height="29.531" viewBox="0 0 44.434 29.531">
  <g id="meter" transform="translate(-1.48 -13.504)">
    <g id="_2_PT" data-name="2 PT" transform="translate(1.999 14.015)">
      <path id="Path_3123" data-name="Path 3123" d="M44.32,42.535H3.094L2.958,42.1a21.707,21.707,0,1,1,41.5,0ZM4.013,41.295H43.4a20.467,20.467,0,1,0-39.388,0Z" transform="translate(-1.999 -14.015)" fill="#4252f1" stroke="#4252f1" stroke-width="1"/>
      <path id="Path_3124" data-name="Path 3124" d="M36,15h1.24v3.1H36Z" transform="translate(-14.912 -14.389)" fill="#4252f1" stroke="#4252f1" stroke-width="1"/>
      <path id="Path_3125" data-name="Path 3125" d="M0,0H1.24V3.1H0Z" transform="matrix(0.866, -0.5, 0.5, 0.866, 10.627, 3.746)" fill="#4252f1" stroke="#4252f1" stroke-width="1"/>
      <path id="Path_3126" data-name="Path 3126" d="M0,0H1.24V3.1H0Z" transform="matrix(0.5, -0.866, 0.866, 0.5, 3.135, 11.693)" fill="#4252f1" stroke="#4252f1" stroke-width="1"/>
      <path id="Path_3127" data-name="Path 3127" d="M3,48H6.1v1.24H3Z" transform="translate(-2.379 -26.922)" fill="#4252f1" stroke="#4252f1" stroke-width="1"/>
      <path id="Path_3128" data-name="Path 3128" d="M66,48h3.1v1.24H66Z" transform="translate(-26.306 -26.922)" fill="#4252f1" stroke="#4252f1" stroke-width="1"/>
      <path id="Path_3129" data-name="Path 3129" d="M0,0H3.1V1.24H0Z" transform="matrix(0.866, -0.5, 0.5, 0.866, 36.973, 12.163)" fill="#4252f1" stroke="#4252f1" stroke-width="1"/>
      <path id="Path_3130" data-name="Path 3130" d="M0,0H3.1V1.24H0Z" transform="matrix(0.5, -0.866, 0.866, 0.5, 30.166, 5.815)" fill="#4252f1" stroke="#4252f1" stroke-width="1"/>
      <path id="Path_3131" data-name="Path 3131" d="M35.1,50.2a3.1,3.1,0,1,1,3.1-3.1A3.1,3.1,0,0,1,35.1,50.2Zm0-4.962A1.861,1.861,0,1,0,36.962,47.1,1.861,1.861,0,0,0,35.1,45.24Z" transform="translate(-13.393 -25.403)" fill="#4252f1" stroke="#4252f1" stroke-width="1"/>
      <path id="Path_3132" data-name="Path 3132" d="M0,0H1.24V10.272H0Z" transform="translate(12.248 13.118) rotate(-45)" fill="#4252f1" stroke="#4252f1" stroke-width="1"/>
    </g>
  </g>
</svg>
