<svg xmlns="http://www.w3.org/2000/svg" width="42.266" height="46.554" viewBox="0 0 42.266 46.554">
  <g id="shield" transform="translate(-23.584)">
    <g id="Group_204" data-name="Group 204" transform="translate(43.19 21.118)">
      <g id="Group_203" data-name="Group 203">
        <path id="Path_3863" data-name="Path 3863" d="M240.766,232.255a1.551,1.551,0,0,0-.663,2.954V237.1a.663.663,0,0,0,1.325,0v-1.886a1.551,1.551,0,0,0-.662-2.954Z" transform="translate(-239.214 -232.255)"/>
      </g>
    </g>
    <g id="Group_206" data-name="Group 206" transform="translate(26.839 3.069)">
      <g id="Group_205" data-name="Group 205">
        <path id="Path_3864" data-name="Path 3864" d="M93.818,40.787a11.782,11.782,0,0,1-6.375-5.853,2.094,2.094,0,0,0-1.885-1.185h-16.6a2.094,2.094,0,0,0-1.885,1.185A11.781,11.781,0,0,1,60.7,40.787a2.076,2.076,0,0,0-1.317,1.943v4.038a28.209,28.209,0,0,0,4.464,15.123A32.461,32.461,0,0,0,76.2,73.116l.084.044a2.092,2.092,0,0,0,1.947,0l.084-.044A32.462,32.462,0,0,0,90.671,61.891a28.21,28.21,0,0,0,4.464-15.123V42.73A2.077,2.077,0,0,0,93.818,40.787Zm-.008,5.981A26.888,26.888,0,0,1,89.553,61.18,31.137,31.137,0,0,1,77.7,71.943l-.084.044a.767.767,0,0,1-.714,0l-.084-.044A31.137,31.137,0,0,1,64.962,61.18,26.887,26.887,0,0,1,60.7,46.768V42.73a.759.759,0,0,1,.479-.711A13.1,13.1,0,0,0,68.267,35.5a.762.762,0,0,1,.688-.429h16.6a.763.763,0,0,1,.688.429,13.1,13.1,0,0,0,7.084,6.516.758.758,0,0,1,.479.711Z" transform="translate(-59.379 -33.749)"/>
      </g>
    </g>
    <g id="Group_208" data-name="Group 208" transform="translate(24.309 22.321)">
      <g id="Group_207" data-name="Group 207">
        <path id="Path_3865" data-name="Path 3865" d="M71.848,245.541a.662.662,0,0,0-.792.5,32.353,32.353,0,0,1-16.861,21.24l-2.021,1.062a.448.448,0,0,1-.417,0l-2.021-1.062A32.344,32.344,0,0,1,32.866,246a.663.663,0,1,0-1.293.29,33.664,33.664,0,0,0,17.546,22.159l2.021,1.062a1.773,1.773,0,0,0,1.65,0l2.021-1.062a33.674,33.674,0,0,0,17.537-22.121A.663.663,0,0,0,71.848,245.541Z" transform="translate(-31.557 -245.487)"/>
      </g>
    </g>
    <g id="Group_210" data-name="Group 210" transform="translate(23.584)">
      <g id="Group_209" data-name="Group 209">
        <path id="Path_3866" data-name="Path 3866" d="M64.277,7.581a7.369,7.369,0,0,1-6.765-6.039A1.789,1.789,0,0,0,55.755,0H33.679a1.789,1.789,0,0,0-1.758,1.542,7.369,7.369,0,0,1-6.765,6.039,1.761,1.761,0,0,0-1.572,1.762v7.114a30.5,30.5,0,0,0,.159,3.107.663.663,0,0,0,.658.595.671.671,0,0,0,.069,0,.662.662,0,0,0,.591-.727,29.176,29.176,0,0,1-.152-2.971V9.343A.445.445,0,0,1,25.3,8.9a8.689,8.689,0,0,0,7.938-7.173.453.453,0,0,1,.445-.4H55.755a.453.453,0,0,1,.445.4A8.689,8.689,0,0,0,64.138,8.9a.445.445,0,0,1,.386.444v7.114a29.189,29.189,0,0,1-.149,2.941.663.663,0,0,0,1.318.134,30.5,30.5,0,0,0,.156-3.075V9.343A1.761,1.761,0,0,0,64.277,7.581Z" transform="translate(-23.584)"/>
      </g>
    </g>
    <g id="Group_212" data-name="Group 212" transform="translate(35.072 6.9)">
      <g id="Group_211" data-name="Group 211">
        <path id="Path_3867" data-name="Path 3867" d="M167.161,85.521h-1.089V82.359a6.474,6.474,0,0,0-12.948,0v3.163h-1.089a2.11,2.11,0,0,0-2.107,2.107v9.486a2.11,2.11,0,0,0,2.107,2.107h15.126a2.11,2.11,0,0,0,2.107-2.107V87.629A2.11,2.11,0,0,0,167.161,85.521Zm-12.712-3.163a5.149,5.149,0,0,1,10.3,0v3.163h-10.3Zm13.494,14.756a.783.783,0,0,1-.782.782H152.034a.783.783,0,0,1-.782-.782V87.629a.783.783,0,0,1,.782-.782h15.126a.783.783,0,0,1,.782.782Z" transform="translate(-149.927 -75.885)"/>
      </g>
    </g>
  </g>
</svg>
