<svg id="Group_393" data-name="Group 393" xmlns="http://www.w3.org/2000/svg" width="39.532" height="25.414" viewBox="0 0 39.532 25.414">
  <path id="Path_579" data-name="Path 579" d="M34.427,10.077a12.967,12.967,0,0,0-3.307,0,.678.678,0,0,1-.107.008.706.706,0,0,1-.105-1.4A13.483,13.483,0,0,1,33.791,8.6a10.657,10.657,0,0,0-10.482-9.8,11.182,11.182,0,0,0-8.672,4.327A6.339,6.339,0,0,1,16.9,7.968a.706.706,0,1,1-1.412,0,4.931,4.931,0,0,0-2.76-4.427c-.049-.024-.1-.049-.148-.071a4.809,4.809,0,0,0-.589-.227l-.075-.019a4.812,4.812,0,0,0-.557-.125c-.054-.009-.109-.018-.164-.025A4.908,4.908,0,0,0,5.6,7.968c0,.058,0,.115.008.172l.008.148L5.611,8.4c0,.092-.011.183-.011.272v.445l-.4.191A8.391,8.391,0,0,0,.659,16.548,7.665,7.665,0,0,0,8.315,24.2h9.907v-4.5a.924.924,0,0,0-.99-.878H15.588a.99.99,0,0,1-.767-1.6l4.917-6.178a.936.936,0,0,1,1.5.032l4.789,6.163a.98.98,0,0,1-.75,1.58H23.634a.882.882,0,0,0-.942.878v4.5h10.42a7.088,7.088,0,0,0,7.079-7.079A7.235,7.235,0,0,0,34.427,10.077Z" transform="translate(-0.659 1.209)" fill="#fff"/>
</svg>
