<svg xmlns="http://www.w3.org/2000/svg" width="142.303" height="92.031" viewBox="0 0 142.303 92.031">
  <g id="Group_781" data-name="Group 781" transform="translate(928.184 190)">
    <path id="Path_995" data-name="Path 995" d="M-713.993,91.093a9.176,9.176,0,0,1-9.166-9.166,9.176,9.176,0,0,1,9.166-9.166,9.176,9.176,0,0,1,9.166,9.166A9.176,9.176,0,0,1-713.993,91.093Z" transform="translate(-174.834 -224.069)" fill="#ff4f4f"/>
    <path id="Path_996" data-name="Path 996" d="M-495.287,23.012l-4.386-7.64,8.032-13.914,12.446,21.555Z" transform="translate(-365.411 -163.265)" fill="#30c9b0"/>
    <path id="Path_997" data-name="Path 997" d="M-285.69,67.015h-.415v-.56l.029-11.344h.231l4.331-7.779,16.8,9.354-9.358,16.8Z" transform="translate(-547.53 -202.385)" fill="#fbc640"/>
    <path id="Path_998" data-name="Path 998" d="M-897.243-102.953a9.6,9.6,0,0,0,8.333,4.813,9.535,9.535,0,0,0,4.759-1.271l20.535-11.785,12.924.034,20.474,11.892a9.535,9.535,0,0,0,4.8,1.3,9.643,9.643,0,0,0,2.472-.324,9.523,9.523,0,0,0,5.834-4.453l29.934-51.536a9.6,9.6,0,0,0-3.475-13.108l-29.772-17.294a9.6,9.6,0,0,0-10.518.586,9.578,9.578,0,0,0-2.02-2.988,9.526,9.526,0,0,0-6.774-2.825L-874.162-190h-.029a9.6,9.6,0,0,0-8.791,5.765,9.571,9.571,0,0,0-3.242-1.577,9.527,9.527,0,0,0-7.279.939l-29.862,17.135a9.525,9.525,0,0,0-4.482,5.813,9.527,9.527,0,0,0,.94,7.279Zm74.017-76.906,29.772,17.294A4.014,4.014,0,0,1-792-157.084l-29.934,51.536a3.983,3.983,0,0,1-2.438,1.861,3.984,3.984,0,0,1-3.042-.409l-12.132-7.047a9.516,9.516,0,0,0,6.4-2.783,9.526,9.526,0,0,0,2.825-6.775l.027-10.489,7.125,3.968a2.778,2.778,0,0,0,1.355.353,2.789,2.789,0,0,0,2.44-1.433l8.814-15.824a2.79,2.79,0,0,0,.246-2.122,2.791,2.791,0,0,0-1.326-1.674l-15.827-8.812a2.79,2.79,0,0,0-2.122-.246,2.784,2.784,0,0,0-.64.276l.05-19.163,1.476-2.54A4.015,4.015,0,0,1-823.226-179.858Zm-7.034,33.874,2.513-4.513,10.95,6.1-6.1,10.948-7.386-4.113Zm-43.929-38.435h.012l34.427.089a3.982,3.982,0,0,1,2.832,1.181,3.98,3.98,0,0,1,1.166,2.839l-.156,59.6a3.983,3.983,0,0,1-1.181,2.833,3.978,3.978,0,0,1-2.826,1.167h-.012l-14.026-.037a9.521,9.521,0,0,0,4.144-5.608,9.527,9.527,0,0,0-.94-7.279l-4.81-8.383h9.985a2.79,2.79,0,0,0,2.416-1.4,2.79,2.79,0,0,0,0-2.79l-11.479-19.881a2.791,2.791,0,0,0-2.417-1.4,2.789,2.789,0,0,0-2.416,1.4l-4.965,8.6-13.773-24,.007-2.936A4.015,4.015,0,0,1-874.189-184.42Zm15.43,40.819-2.461-4.288,4.169-7.222,6.646,11.51Zm-63.7-16.867a3.981,3.981,0,0,1,1.873-2.43l29.862-17.135a3.983,3.983,0,0,1,1.989-.534,4.027,4.027,0,0,1,1.054.141,3.982,3.982,0,0,1,2.43,1.875l29.663,51.69a3.985,3.985,0,0,1,.393,3.044,3.981,3.981,0,0,1-1.873,2.43l-8.6,4.935-.076.042L-886.93-104.25a4.015,4.015,0,0,1-5.474-1.48l-29.663-51.693A3.981,3.981,0,0,1-922.46-160.467Z" transform="translate(0)" fill="#fff"/>
    <path id="Path_999" data-name="Path 999" d="M-654.725,279.745l-9.336,5.357a2.791,2.791,0,0,0-1.031,3.809,2.789,2.789,0,0,0,2.423,1.4,2.781,2.781,0,0,0,1.386-.37l9.336-5.358a2.791,2.791,0,0,0,1.031-3.809A2.79,2.79,0,0,0-654.725,279.745Z" transform="translate(-224.034 -400.257)" fill="#fff"/>
    <path id="Path_1000" data-name="Path 1000" d="M-726.919,80.4a11.411,11.411,0,0,0,11.4-11.4,11.411,11.411,0,0,0-11.4-11.4,11.411,11.411,0,0,0-11.4,11.4A11.411,11.411,0,0,0-726.919,80.4Zm0-17.216A5.824,5.824,0,0,1-721.1,69a5.825,5.825,0,0,1-5.818,5.818A5.825,5.825,0,0,1-732.737,69,5.824,5.824,0,0,1-726.919,63.184Z" transform="translate(-161.908 -211.144)" fill="#fff"/>
    <path id="Path_1001" data-name="Path 1001" d="M-548.239,255.986c3.591,0,3.6-5.581,0-5.581S-551.835,255.986-548.239,255.986Z" transform="translate(-321.699 -375.554)" fill="#fff"/>
  </g>
</svg>
