<svg xmlns="http://www.w3.org/2000/svg" width="44.072" height="42.184" viewBox="0 0 44.072 42.184">
  <g id="bar-chart_1_" data-name="bar-chart (1)" transform="translate(-2 -3.5)">
    <path id="Path_3096" data-name="Path 3096" d="M66.545,57.81H59.6a.63.63,0,0,1-.63-.63V36.869a.63.63,0,0,1,.63-.63h6.943a.63.63,0,0,1,.63.63V57.18A.63.63,0,0,1,66.545,57.81Zm-6.313-1.259h5.683V37.5H60.232Z" transform="translate(-21.103 -12.126)" fill="#4252f1"/>
    <path id="Path_3097" data-name="Path 3097" d="M51.64,53.129a.63.63,0,0,1-.63-.63V50.63a.63.63,0,0,1,1.259,0V52.5A.63.63,0,0,1,51.64,53.129Z" transform="translate(-18.153 -17.223)" fill="#4252f1"/>
    <path id="Path_3098" data-name="Path 3098" d="M47.554,51.91H40.61a.63.63,0,0,1-.63-.63V20.94a.63.63,0,0,1,.63-.63h6.945a.63.63,0,0,1,.63.63v8.053a.63.63,0,1,1-1.259,0V21.569H41.239V50.651h5.685V45.91a.63.63,0,0,1,1.259,0V51.28A.63.63,0,0,1,47.554,51.91Z" transform="translate(-14.068 -6.226)" fill="#4252f1"/>
    <path id="Path_3099" data-name="Path 3099" d="M51.64,43.185a.63.63,0,0,1-.63-.63V40.73a.63.63,0,0,1,1.259,0v1.826A.63.63,0,0,1,51.64,43.185Z" transform="translate(-18.153 -13.557)" fill="#4252f1"/>
    <path id="Path_3100" data-name="Path 3100" d="M28.563,55.995H21.621a.63.63,0,0,1-.63-.63v-23.4a.63.63,0,0,1,.63-.63h6.943a.63.63,0,0,1,.63.63v23.4A.63.63,0,0,1,28.563,55.995ZM22.25,54.735h5.683V32.6H22.25Z" transform="translate(-7.034 -10.311)" fill="#4252f1"/>
    <path id="Path_3101" data-name="Path 3101" d="M9.572,58.717H2.63a.63.63,0,0,1-.63-.63V39.319a.63.63,0,0,1,.63-.63H9.572a.63.63,0,0,1,.63.63V58.088A.63.63,0,0,1,9.572,58.717ZM3.259,57.458H8.943V39.948H3.259Z" transform="translate(0 -13.034)" fill="#4252f1"/>
    <path id="Path_3102" data-name="Path 3102" d="M63.634,25.8a3.148,3.148,0,1,1,3.148-3.148A3.148,3.148,0,0,1,63.634,25.8Zm0-5.037a1.889,1.889,0,1,0,1.889,1.889A1.889,1.889,0,0,0,63.634,20.759Z" transform="translate(-21.663 -5.926)" fill="#4252f1"/>
    <path id="Path_3103" data-name="Path 3103" d="M44.648,9.8A3.148,3.148,0,1,1,47.8,6.648,3.148,3.148,0,0,1,44.648,9.8Zm0-5.037a1.889,1.889,0,1,0,1.889,1.889A1.889,1.889,0,0,0,44.648,4.759Z" transform="translate(-14.631)" fill="#4252f1"/>
    <path id="Path_3104" data-name="Path 3104" d="M25.8,18.8a3.148,3.148,0,1,1,3.148-3.148A3.148,3.148,0,0,1,25.8,18.8Zm0-5.037a1.889,1.889,0,1,0,1.889,1.889A1.889,1.889,0,0,0,25.8,13.759Z" transform="translate(-7.649 -3.334)" fill="#4252f1"/>
    <path id="Path_3105" data-name="Path 3105" d="M6.662,28.8A3.148,3.148,0,1,1,9.81,25.648,3.148,3.148,0,0,1,6.662,28.8Zm0-5.037a1.889,1.889,0,1,0,1.889,1.889A1.889,1.889,0,0,0,6.662,23.759Z" transform="translate(-0.561 -7.038)" fill="#4252f1"/>
    <path id="Path_3106" data-name="Path 3106" d="M11.626,23.562a.63.63,0,0,1-.28-1.2l7.676-3.8a.63.63,0,1,1,.559,1.128L11.906,23.5A.625.625,0,0,1,11.626,23.562Z" transform="translate(-3.33 -5.554)" fill="#4252f1"/>
    <path id="Path_3107" data-name="Path 3107" d="M30.745,13.886a.63.63,0,0,1-.247-1.209l7.483-3.185a.63.63,0,1,1,.494,1.158l-7.483,3.185A.622.622,0,0,1,30.745,13.886Z" transform="translate(-10.414 -2.201)" fill="#4252f1"/>
    <path id="Path_3108" data-name="Path 3108" d="M57.7,17.685a.63.63,0,0,1-.408-.15l-8.116-6.926A.63.63,0,1,1,50,9.65l8.116,6.926a.63.63,0,0,1-.409,1.109Z" transform="translate(-17.393 -2.222)" fill="#4252f1"/>
  </g>
</svg>
