<svg xmlns="http://www.w3.org/2000/svg" width="45.64" height="36.704" viewBox="0 0 45.64 36.704">
  <g id="online-video" transform="translate(0 -47.969)">
    <g id="Group_201" data-name="Group 201" transform="translate(0 47.969)">
      <path id="Path_3860" data-name="Path 3860" d="M43.309,74.664H2.331A2.333,2.333,0,0,1,0,72.334V50.3a2.333,2.333,0,0,1,2.331-2.33H43.309A2.333,2.333,0,0,1,45.64,50.3V72.334A2.333,2.333,0,0,1,43.309,74.664ZM2.331,49.851a.449.449,0,0,0-.449.448V72.334a.449.449,0,0,0,.449.448H43.309a.449.449,0,0,0,.448-.448V50.3a.449.449,0,0,0-.448-.448Z" transform="translate(0 -47.969)"/>
    </g>
    <g id="Group_202" data-name="Group 202" transform="translate(17.438 54.059)">
      <path id="Path_3861" data-name="Path 3861" d="M187.724,127.766a.958.958,0,0,1-.51-.836V114.3a.941.941,0,0,1,1.487-.767l8.882,6.316a.941.941,0,0,1,0,1.534L188.7,127.7A.862.862,0,0,1,187.724,127.766Zm1.372-11.644v8.984l6.317-4.492Z" transform="translate(-187.214 -113.357)"/>
    </g>
    <path id="Path_3862" data-name="Path 3862" d="M44.7,364.817H26.71a3.725,3.725,0,0,0-7.209,0H.941a.941.941,0,0,0,0,1.882H19.5a3.725,3.725,0,0,0,7.209,0H44.7a.941.941,0,0,0,0-1.882ZM23.105,367.6a1.843,1.843,0,1,1,1.843-1.843A1.845,1.845,0,0,1,23.105,367.6Z" transform="translate(0 -284.811)"/>
  </g>
</svg>
