<svg xmlns="http://www.w3.org/2000/svg" width="55.701" height="48.633" viewBox="0 0 55.701 48.633">
  <g id="shop" transform="translate(0 -31.05)">
    <g id="Group_141" data-name="Group 141" transform="translate(0 31.05)">
      <path id="Path_2185" data-name="Path 2185" d="M259.525,263.75h-7.569a3.76,3.76,0,0,0-3.756,3.756v5.8a3.76,3.76,0,0,0,3.756,3.756h7.569a3.76,3.76,0,0,0,3.756-3.756v-5.8A3.76,3.76,0,0,0,259.525,263.75Zm1.024,9.56a1.027,1.027,0,0,1-1.024,1.024h-7.569a1.027,1.027,0,0,1-1.024-1.024v-5.8a1.027,1.027,0,0,1,1.024-1.024h7.569a1.027,1.027,0,0,1,1.024,1.024Z" transform="translate(-219.951 -237.265)" fill="#4252f1"/>
      <path id="Path_2186" data-name="Path 2186" d="M55.7,46.984a1.268,1.268,0,0,0-.182-.672L47.233,31.744a1.373,1.373,0,0,0-1.184-.694H9.64a1.35,1.35,0,0,0-1.184.694L.182,46.313A1.381,1.381,0,0,0,0,46.984a7.99,7.99,0,0,0,4.78,7.307V78.317a1.37,1.37,0,0,0,1.366,1.366h43.4a1.37,1.37,0,0,0,1.366-1.366V54.462a.6.6,0,0,0-.011-.148A8.012,8.012,0,0,0,55.7,46.984ZM10.437,33.793H45.253l6.476,11.393H3.972Zm29.2,14.113a5.249,5.249,0,0,1-10.334,0Zm-13.237,0a5.256,5.256,0,0,1-10.346,0Zm-23.583,0H13.168a5.256,5.256,0,0,1-10.346,0ZM22.945,76.952H15.092V62.213a1.945,1.945,0,0,1,1.946-1.946H21.01a1.945,1.945,0,0,1,1.946,1.946V76.952Zm25.233,0h-22.5V62.213A4.685,4.685,0,0,0,21,57.535H17.027a4.685,4.685,0,0,0-4.678,4.678v14.75H7.512v-22c.159.011.319.011.478.011a7.98,7.98,0,0,0,6.624-3.528,7.982,7.982,0,0,0,13.248,0,7.961,7.961,0,0,0,13.225,0,7.98,7.98,0,0,0,6.624,3.528c.159,0,.307-.011.467-.011V76.952Zm-.467-24.709a5.246,5.246,0,0,1-5.167-4.325H52.89A5.278,5.278,0,0,1,47.711,52.242Z" transform="translate(0 -31.05)" fill="#4252f1"/>
    </g>
  </g>
</svg>
