<svg xmlns="http://www.w3.org/2000/svg" width="55.701" height="48.956" viewBox="0 0 55.701 48.956">
  <g id="shopping-cart" transform="translate(0 0)">
    <path id="Path_2317" data-name="Path 2317" d="M17.946,32.638h29.6a1.632,1.632,0,0,0,1.569-1.184L55.638,8.608a1.632,1.632,0,0,0-1.569-2.08H14.183l-1.167-5.25A1.632,1.632,0,0,0,11.423,0H1.632a1.632,1.632,0,1,0,0,3.264h8.482l5.892,26.514a4.9,4.9,0,0,0,1.945,9.388H47.542a1.632,1.632,0,0,0,0-3.264H17.95a1.632,1.632,0,0,1,0-3.263ZM51.906,9.791l-5.6,19.583H19.259L14.908,9.791Zm0,0" fill="#4252f1"/>
    <path id="Path_2318" data-name="Path 2318" d="M150,364.9a4.9,4.9,0,1,0,4.9-4.9A4.9,4.9,0,0,0,150,364.9Zm4.9-1.632a1.632,1.632,0,1,1-1.632,1.632A1.634,1.634,0,0,1,154.9,363.264Zm0,0" transform="translate(-133.681 -320.835)" fill="#4252f1"/>
    <path id="Path_2319" data-name="Path 2319" d="M362,364.9a4.9,4.9,0,1,0,4.9-4.9A4.9,4.9,0,0,0,362,364.9Zm4.9-1.632a1.632,1.632,0,1,1-1.632,1.632A1.634,1.634,0,0,1,366.9,363.264Zm0,0" transform="translate(-322.617 -320.835)" fill="#4252f1"/>
  </g>
</svg>
