<svg xmlns="http://www.w3.org/2000/svg" width="45" height="45" viewBox="0 0 45 45">
  <g id="Group_492" data-name="Group 492" transform="translate(-1503 -1311)">
    <g id="online-business" transform="translate(1503 1311)">
      <g id="Group_485" data-name="Group 485" transform="translate(22.5)">
        <path id="Path_5104" data-name="Path 5104" d="M33.562,18.75A.689.689,0,0,1,33,18.562l-4.688-3.187a3.532,3.532,0,0,0-1.5-.375h-12A2.884,2.884,0,0,1,12,12.188V2.812A2.884,2.884,0,0,1,14.813,0H31.688A2.884,2.884,0,0,1,34.5,2.812v15c0,.375-.188.75-.563.75,0,.188-.187.188-.375.188ZM14.812,1.875a.886.886,0,0,0-.938.937v9.375a.886.886,0,0,0,.938.937h12a4.3,4.3,0,0,1,2.625.75l3.187,2.25V2.813a.886.886,0,0,0-.937-.937Z" transform="translate(-12)" fill="#fff"/>
      </g>
      <g id="Group_486" data-name="Group 486" transform="translate(0 3.75)">
        <path id="Path_5105" data-name="Path 5105" d="M.937,20.75c-.187,0-.375,0-.375-.187-.375,0-.563-.375-.563-.75v-15A2.884,2.884,0,0,1,2.812,2h15a.886.886,0,0,1,.938.938.886.886,0,0,1-.937.938h-15a.886.886,0,0,0-.937.937V18.125l3.188-2.063a4.48,4.48,0,0,1,2.625-.937h15.75a.937.937,0,1,1,0,1.875H7.688a2.129,2.129,0,0,0-1.5.563L1.5,20.75H.938Z" transform="translate(0 -2)" fill="#fff"/>
      </g>
      <g id="Group_487" data-name="Group 487" transform="translate(4.687 22.5)">
        <path id="Path_5106" data-name="Path 5106" d="M8.125,23.25A5.525,5.525,0,0,1,2.5,17.625,5.525,5.525,0,0,1,8.125,12a5.525,5.525,0,0,1,5.625,5.625A5.525,5.525,0,0,1,8.125,23.25Zm0-9.375a3.75,3.75,0,1,0,3.75,3.75A3.761,3.761,0,0,0,8.125,13.875Z" transform="translate(-2.5 -12)" fill="#fff"/>
      </g>
      <g id="Group_488" data-name="Group 488" transform="translate(0 35.625)">
        <path id="Path_5107" data-name="Path 5107" d="M19.687,28.375a.886.886,0,0,1-.937-.938v-3.75a2.884,2.884,0,0,0-2.812-2.812H4.687a2.884,2.884,0,0,0-2.812,2.812v3.75a.886.886,0,0,1-.937.938A.886.886,0,0,1,0,27.437v-3.75A4.642,4.642,0,0,1,4.687,19h11.25a4.642,4.642,0,0,1,4.687,4.687v3.75A.886.886,0,0,1,19.687,28.375Z" transform="translate(0 -19)" fill="#fff"/>
      </g>
      <g id="Group_489" data-name="Group 489" transform="translate(29.062 22.5)">
        <path id="Path_5108" data-name="Path 5108" d="M21.125,23.25A5.525,5.525,0,0,1,15.5,17.625a5.625,5.625,0,1,1,11.25,0A5.525,5.525,0,0,1,21.125,23.25Zm0-9.375a3.75,3.75,0,1,0,3.75,3.75A3.761,3.761,0,0,0,21.125,13.875Z" transform="translate(-15.5 -12)" fill="#fff"/>
      </g>
      <g id="Group_490" data-name="Group 490" transform="translate(24.375 35.625)">
        <path id="Path_5109" data-name="Path 5109" d="M32.687,28.375a.886.886,0,0,1-.937-.938v-3.75a2.884,2.884,0,0,0-2.812-2.812H17.687a2.884,2.884,0,0,0-2.812,2.812v3.75a.937.937,0,1,1-1.875,0v-3.75A4.642,4.642,0,0,1,17.687,19h11.25a4.642,4.642,0,0,1,4.688,4.687v3.75A.886.886,0,0,1,32.687,28.375Z" transform="translate(-13 -19)" fill="#fff"/>
      </g>
    </g>
    <path id="Path_5111" data-name="Path 5111" d="M0,0H21V13l-.439,2.725L16.75,13H0Z" transform="translate(1526 1312)" fill="#fff" opacity="0.3"/>
    <circle id="Ellipse_457" data-name="Ellipse 457" cx="4.5" cy="4.5" r="4.5" transform="translate(1509 1335)" fill="#fff" opacity="0.29"/>
  </g>
</svg>
