<svg xmlns="http://www.w3.org/2000/svg" width="47.102" height="47.101" viewBox="0 0 47.102 47.101">
  <g id="Group_484" data-name="Group 484" transform="translate(-740 -1308)">
    <g id="Line_cutting_stoke_Expand" transform="translate(724 1292)">
      <g id="Group_473" data-name="Group 473" transform="translate(16 16)">
        <path id="Path_5083" data-name="Path 5083" d="M277.981,220.065a.2.2,0,0,1-.2.2H256v1.57h21.784a1.768,1.768,0,0,0,1.766-1.766V192h-1.57Z" transform="translate(-232.449 -174.729)" fill="#fff"/>
        <path id="Path_5084" data-name="Path 5084" d="M198.42,16H169.766A1.768,1.768,0,0,0,168,17.766V31.7h1.57V17.766a.2.2,0,0,1,.2-.2H198.42a.2.2,0,0,1,.2.2V31.7h1.57V17.766A1.768,1.768,0,0,0,198.42,16Z" transform="translate(-153.085 -16)" fill="#fff"/>
        <path id="Path_5085" data-name="Path 5085" d="M378.193,210.343l-4.94,4.94-1.8-1.8-1.11,1.11,2.355,2.355a.785.785,0,0,0,1.11,0l5.5-5.5Z" transform="translate(-335.572 -191.272)" fill="#fff"/>
        <path id="Path_5086" data-name="Path 5086" d="M344,217.42a.785.785,0,0,0,.785.785h7.85v-1.57H345.57V209.57h5.5V208h-6.28a.785.785,0,0,0-.785.785Z" transform="translate(-311.814 -189.159)" fill="#fff"/>
        <path id="Path_5087" data-name="Path 5087" d="M371.453,349.483l-1.11,1.11,2.355,2.355a.785.785,0,0,0,1.11,0l5.5-5.5-1.11-1.11-4.94,4.94Z" transform="translate(-335.572 -313.927)" fill="#fff"/>
        <path id="Path_5088" data-name="Path 5088" d="M344,353.42a.785.785,0,0,0,.785.785h7.85v-1.57H345.57V345.57h5.5V344h-6.28a.785.785,0,0,0-.785.785Z" transform="translate(-311.814 -311.814)" fill="#fff"/>
        <path id="Path_5089" data-name="Path 5089" d="M378.193,66.343l-4.94,4.94-1.8-1.8-1.11,1.11,2.355,2.355a.785.785,0,0,0,1.11,0l5.5-5.5Z" transform="translate(-335.572 -61.403)" fill="#fff"/>
        <path id="Path_5090" data-name="Path 5090" d="M344,64.785V73.42a.785.785,0,0,0,.785.785h7.85v-1.57H345.57V65.57h5.5V64h-6.28A.785.785,0,0,0,344,64.785Z" transform="translate(-311.814 -59.29)" fill="#fff"/>
        <path id="Path_5091" data-name="Path 5091" d="M227.453,69.483l-1.11,1.11,2.355,2.355a.785.785,0,0,0,1.11,0l5.5-5.5-1.11-1.11-4.94,4.94Z" transform="translate(-205.702 -61.403)" fill="#fff"/>
        <path id="Path_5092" data-name="Path 5092" d="M200,64.785V73.42a.785.785,0,0,0,.785.785h7.85v-1.57H201.57V65.57h5.5V64h-6.28A.785.785,0,0,0,200,64.785Z" transform="translate(-181.944 -59.29)" fill="#fff"/>
        <path id="Path_5093" data-name="Path 5093" d="M45.831,206.915a14.915,14.915,0,1,0-29.831,0h1.57a13.337,13.337,0,1,1,.082,1.483l-1.56.173a14.916,14.916,0,0,0,29.739-1.657Z" transform="translate(-16 -174.729)" fill="#fff"/>
        <path id="Path_5094" data-name="Path 5094" d="M126.631,287.473l-3.631,2.9.981,1.226,3.925-3.14a.785.785,0,0,0,.294-.613V280h-1.57Z" transform="translate(-112.5 -254.094)" fill="#fff"/>
        <path id="Path_5095" data-name="Path 5095" d="M60.143,225.517a10.146,10.146,0,0,1,2.13.394l.449-1.5a11.8,11.8,0,1,0,1.683.648l-.675,1.417a10.159,10.159,0,0,1,2.262,1.476l-1.083,1.083,1.11,1.11,1.081-1.081a10.259,10.259,0,0,1,2.432,5.847H67.993v1.57h1.541a10.162,10.162,0,0,1-2.429,5.852l-1.086-1.086-1.11,1.11L66,243.44a10.162,10.162,0,0,1-5.852,2.429v-1.541h-1.57v1.541a10.162,10.162,0,0,1-5.851-2.429l1.085-1.086-1.11-1.11-1.086,1.085a10.162,10.162,0,0,1-2.429-5.852h1.54v-1.57h-1.54a10.162,10.162,0,0,1,2.429-5.852l1.086,1.086,1.11-1.11-1.085-1.086a10.162,10.162,0,0,1,5.851-2.429v1.54h1.57Z" transform="translate(-44.443 -203.507)" fill="#fff"/>
      </g>
    </g>
    <circle id="Ellipse_456" data-name="Ellipse 456" cx="11" cy="11" r="11" transform="translate(744 1329)" fill="#fff" opacity="0.37"/>
  </g>
</svg>
