<svg xmlns="http://www.w3.org/2000/svg" width="49.842" height="49.842" viewBox="0 0 49.842 49.842">
  <g id="Group_476" data-name="Group 476" transform="translate(-741 -444.999)">
    <circle id="Ellipse_436" data-name="Ellipse 436" cx="6.5" cy="6.5" r="6.5" transform="translate(759.799 463)" fill="#fff" opacity="0.29"/>
    <g id="technical-support" transform="translate(741 445)">
      <path id="Path_2343" data-name="Path 2343" d="M8.766,38.544a4.064,4.064,0,0,0-1.964.5A22.985,22.985,0,0,1,29.5,2.4.974.974,0,0,0,29.882.493,25.106,25.106,0,0,0,24.921,0,24.921,24.921,0,0,0,5.362,40.365a4.09,4.09,0,1,0,3.4-1.821Zm1.514,5.6a2.141,2.141,0,1,1,.627-1.514A2.127,2.127,0,0,1,10.28,44.147Zm0,0" fill="#fff"/>
      <path id="Path_2344" data-name="Path 2344" d="M222.737,38.406a4.08,4.08,0,1,0-1.439,1.321,22.984,22.984,0,0,1-22.65,36.652.974.974,0,1,0-.382,1.909,25.123,25.123,0,0,0,4.914.484,24.921,24.921,0,0,0,19.557-40.367Zm-4.917-.752a2.142,2.142,0,1,1,1.514.627A2.128,2.128,0,0,1,217.821,37.654Zm0,0" transform="translate(-178.259 -28.931)" fill="#fff"/>
      <path id="Path_2345" data-name="Path 2345" d="M87.686,108.461a.974.974,0,0,0,.973.973h6.087a.973.973,0,0,0,.973-.973v-1.887a15.245,15.245,0,0,0,3.654-1.514l1.332,1.332a.973.973,0,0,0,1.377,0l4.3-4.305a.974.974,0,0,0,0-1.377l-1.331-1.331a15.244,15.244,0,0,0,1.514-3.654h1.88a.973.973,0,0,0,.973-.973V88.665a.973.973,0,0,0-.973-.973h-1.88a15.247,15.247,0,0,0-1.514-3.653l1.324-1.324a.974.974,0,0,0,0-1.377l-4.306-4.3a.973.973,0,0,0-1.377,0l-1.322,1.322a15.245,15.245,0,0,0-3.654-1.514v-1.87A.973.973,0,0,0,94.746,74H88.659a.974.974,0,0,0-.973.973v1.87a15.232,15.232,0,0,0-3.653,1.514L82.71,77.035a.974.974,0,0,0-1.377,0l-4.305,4.3a.973.973,0,0,0,0,1.377l1.324,1.324a15.242,15.242,0,0,0-1.514,3.653H74.961a.973.973,0,0,0-.973.973l0,6.087a.973.973,0,0,0,.973.974h1.88a15.244,15.244,0,0,0,1.514,3.654l-1.331,1.331a.973.973,0,0,0,0,1.377l4.3,4.305a.974.974,0,0,0,.688.286h0a.973.973,0,0,0,.688-.285l1.332-1.332a15.257,15.257,0,0,0,3.654,1.514Zm-3.272-5.449a.974.974,0,0,0-1.217.129l-1.185,1.185L79.086,101.4l1.184-1.185A.973.973,0,0,0,80.4,99a13.325,13.325,0,0,1-1.844-4.45.974.974,0,0,0-.952-.769H75.931l0-4.14H77.6a.973.973,0,0,0,.952-.769A13.326,13.326,0,0,1,80.4,84.42.973.973,0,0,0,80.27,83.2l-1.177-1.177L82.022,79.1,83.2,80.276a.974.974,0,0,0,1.217.129,13.319,13.319,0,0,1,4.45-1.844.974.974,0,0,0,.769-.952V75.947h4.14v1.662a.973.973,0,0,0,.769.952,13.33,13.33,0,0,1,4.45,1.844.973.973,0,0,0,1.216-.129l1.176-1.175,2.928,2.926L103.136,83.2a.973.973,0,0,0-.129,1.217,13.334,13.334,0,0,1,1.844,4.45.973.973,0,0,0,.952.769h1.673v4.14H105.8a.974.974,0,0,0-.952.769A13.323,13.323,0,0,1,103.006,99a.974.974,0,0,0,.129,1.217l1.184,1.184-2.926,2.928-1.185-1.185a.973.973,0,0,0-1.217-.129,13.334,13.334,0,0,1-4.45,1.844.973.973,0,0,0-.769.952v1.68h-4.14v-1.68a.974.974,0,0,0-.769-.952A13.326,13.326,0,0,1,84.414,103.012Zm0,0" transform="translate(-66.782 -66.797)" fill="#fff"/>
      <path id="Path_2346" data-name="Path 2346" d="M189.459,181.415a8.044,8.044,0,1,0-8.044,8.044A8.053,8.053,0,0,0,189.459,181.415Zm-14.141,0a6.1,6.1,0,1,1,6.1,6.1A6.1,6.1,0,0,1,175.318,181.415Zm0,0" transform="translate(-156.494 -156.494)" fill="#fff"/>
      <path id="Path_2347" data-name="Path 2347" d="M339.051,19.757a.974.974,0,1,0-.688-.285A.981.981,0,0,0,339.051,19.757Zm0,0" transform="translate(-305.167 -16.075)" fill="#fff"/>
      <path id="Path_2348" data-name="Path 2348" d="M155.332,474.359a.974.974,0,1,0,.688.285A.981.981,0,0,0,155.332,474.359Zm0,0" transform="translate(-139.333 -428.182)" fill="#fff"/>
    </g>
    <path id="Path_5065" data-name="Path 5065" d="M83.858,98.834a.7.7,0,0,0,.7.7h4.386a.7.7,0,0,0,.7-.7v-1.36a10.986,10.986,0,0,0,2.633-1.091l.96.96a.7.7,0,0,0,.992,0l3.1-3.1a.7.7,0,0,0,0-.992l-.959-.959a10.985,10.985,0,0,0,1.091-2.633H98.82a.7.7,0,0,0,.7-.7V84.568a.7.7,0,0,0-.7-.7H97.465a10.987,10.987,0,0,0-1.091-2.633l.954-.954a.7.7,0,0,0,0-.993l-3.1-3.1a.7.7,0,0,0-.992,0l-.953.953a10.985,10.985,0,0,0-2.633-1.091V74.7a.7.7,0,0,0-.7-.7H84.559a.7.7,0,0,0-.7.7v1.348a10.976,10.976,0,0,0-2.633,1.091l-.953-.953a.7.7,0,0,0-.992,0l-3.1,3.1a.7.7,0,0,0,0,.992l.954.954a10.984,10.984,0,0,0-1.091,2.633H74.688a.7.7,0,0,0-.7.7l0,4.386a.7.7,0,0,0,.7.7H76.04a10.986,10.986,0,0,0,1.091,2.633l-.959.959a.7.7,0,0,0,0,.992l3.1,3.1a.7.7,0,0,0,.5.206h0a.7.7,0,0,0,.5-.206l.96-.96a11,11,0,0,0,2.633,1.091ZM81.5,94.907a.7.7,0,0,0-.877.093l-.854.854-2.109-2.11.853-.854a.7.7,0,0,0,.093-.877,9.6,9.6,0,0,1-1.329-3.207.7.7,0,0,0-.686-.554h-1.2l0-2.983h1.2a.7.7,0,0,0,.686-.554,9.6,9.6,0,0,1,1.329-3.207.7.7,0,0,0-.093-.877l-.848-.848,2.11-2.109.847.847a.7.7,0,0,0,.877.093,9.6,9.6,0,0,1,3.207-1.329.7.7,0,0,0,.554-.686V75.4h2.983v1.2a.7.7,0,0,0,.554.686,9.606,9.606,0,0,1,3.207,1.329.7.7,0,0,0,.877-.093l.847-.847,2.11,2.109-.848.848a.7.7,0,0,0-.093.877,9.609,9.609,0,0,1,1.329,3.207.7.7,0,0,0,.686.554h1.205v2.983H96.913a.7.7,0,0,0-.686.554A9.6,9.6,0,0,1,94.9,92.014a.7.7,0,0,0,.093.877l.853.853-2.109,2.11L92.882,95a.7.7,0,0,0-.877-.093A9.609,9.609,0,0,1,88.8,96.236a.7.7,0,0,0-.554.686v1.21H85.261v-1.21a.7.7,0,0,0-.554-.686A9.6,9.6,0,0,1,81.5,94.907Zm0,0" transform="translate(679.217 383.203)" fill="#fff" opacity="0.24"/>
  </g>
</svg>
