<svg xmlns="http://www.w3.org/2000/svg" width="49.5" height="49.484" viewBox="0 0 49.5 49.484">
  <g id="Group_479" data-name="Group 479" transform="translate(-1501 -877)">
    <ellipse id="Ellipse_450" data-name="Ellipse 450" cx="16" cy="16.5" rx="16" ry="16.5" transform="translate(1506 881)" fill="#fff" opacity="0.29"/>
    <g id="analysis" transform="translate(1501 876.92)">
      <g id="Group_412" data-name="Group 412" transform="translate(3.318 3.382)">
        <g id="Group_411" data-name="Group 411">
          <path id="Path_4566" data-name="Path 4566" d="M49.5,32.106A17.319,17.319,0,1,0,66.819,49.425,17.318,17.318,0,0,0,49.5,32.106Zm0,1.649a15.653,15.653,0,0,1,12.8,6.655l-2.062,2.062A3.254,3.254,0,0,0,58.572,42a3.3,3.3,0,0,0-3.3,3.3,3.255,3.255,0,0,0,.468,1.665l-5.4,5.4a3.2,3.2,0,0,0-3.33,0L43.26,48.615a3.255,3.255,0,0,0,.468-1.665,3.292,3.292,0,0,0-6.48-.825h-3.06A15.691,15.691,0,0,1,49.5,33.755ZM60.221,45.3a1.649,1.649,0,1,1-1.649-1.649A1.649,1.649,0,0,1,60.221,45.3Zm-9.9,9.9a1.649,1.649,0,1,1-1.649-1.649A1.649,1.649,0,0,1,50.325,55.2ZM42.078,46.95A1.649,1.649,0,1,1,40.429,45.3,1.649,1.649,0,0,1,42.078,46.95ZM57.114,63.125A15.666,15.666,0,0,1,33.92,47.775h3.328a3.3,3.3,0,0,0,3.182,2.474,3.255,3.255,0,0,0,1.665-.468l3.751,3.751a3.255,3.255,0,0,0-.468,1.665,3.3,3.3,0,1,0,6.6,0,3.255,3.255,0,0,0-.468-1.665l5.4-5.4a3.255,3.255,0,0,0,1.665.468,3.3,3.3,0,0,0,3.3-3.3,3.255,3.255,0,0,0-.468-1.665l1.8-1.8A15.655,15.655,0,0,1,57.114,63.125Z" transform="translate(-32.182 -32.106)" fill="#fff"/>
        </g>
      </g>
      <g id="Group_414" data-name="Group 414" transform="translate(0 0.08)">
        <g id="Group_413" data-name="Group 413" transform="translate(0 0)">
          <path id="Path_4567" data-name="Path 4567" d="M41.254,8.33a3.3,3.3,0,0,0,3.182-2.474H49.5V4.206H44.435a3.292,3.292,0,0,0-6.48.825A3.255,3.255,0,0,0,38.422,6.7L36.973,8.145A20.617,20.617,0,1,0,31.826,38l2.489,2.489,1.166,1.166L42.12,48.3a4.323,4.323,0,0,0,6.114-6.114L41.6,35.545l-1.166-1.166L37.94,31.89a20.549,20.549,0,0,0,0-22.379l1.649-1.649A3.256,3.256,0,0,0,41.254,8.33Zm0-4.948A1.649,1.649,0,1,1,39.6,5.031,1.649,1.649,0,0,1,41.254,3.382ZM47.068,43.35a2.674,2.674,0,1,1-3.739,3.825l-.043-.043-6.639-6.639,3.782-3.782Zm-7.8-7.8-3.782,3.782L33.2,37.044c.116-.089.225-.187.34-.279s.247-.2.37-.3c.181-.152.359-.305.534-.463.09-.082.176-.165.264-.247q.507-.475.982-.982c.082-.088.165-.174.247-.264.158-.175.311-.353.463-.534q.155-.183.3-.37c.091-.114.189-.223.278-.339Zm-3.2-3.831c-.26.363-.528.718-.811,1.061-.082.1-.171.2-.256.294q-.379.44-.782.854-.176.181-.357.357-.412.4-.854.782c-.1.082-.195.172-.294.256-.342.283-.7.551-1.061.811a19,19,0,1,1,4.415-4.415Z" transform="translate(0 -0.08)" fill="#fff"/>
        </g>
      </g>
    </g>
  </g>
</svg>
