<svg xmlns="http://www.w3.org/2000/svg" width="46.999" height="47" viewBox="0 0 46.999 47">
  <g id="Group_483" data-name="Group 483" transform="translate(-370.999 -1310)">
    <g id="chat" transform="translate(370.994 1310)">
      <g id="Group_474" data-name="Group 474" transform="translate(0.005)">
        <path id="Path_5096" data-name="Path 5096" d="M44.365,0H2.647A2.643,2.643,0,0,0,.007,2.641V14.566a2.645,2.645,0,0,0,2.64,2.643H4.639l.025,3.847a.918.918,0,0,0,1.46.735l6.263-4.582h7.366l2.995,4.361a.918.918,0,0,0,1.514,0l2.995-4.361h7.369l6.26,4.582a.918.918,0,0,0,1.46-.734l.027-3.848h1.992a2.645,2.645,0,0,0,2.64-2.643V2.641A2.644,2.644,0,0,0,44.365,0Zm.8,14.566a.807.807,0,0,1-.8.807h-2.9a.918.918,0,0,0-.918.911l-.021,2.966-5.055-3.7a.918.918,0,0,0-.542-.177H26.773a.918.918,0,0,0-.757.4l-2.511,3.657-2.511-3.657a.918.918,0,0,0-.757-.4H12.087a.919.919,0,0,0-.542.177l-5.057,3.7-.019-2.965a.918.918,0,0,0-.918-.912h-2.9a.807.807,0,0,1-.8-.807V2.641a.805.805,0,0,1,.8-.8H44.365a.805.805,0,0,1,.8.8Z" transform="translate(-0.007)" fill="#fff"/>
        <path id="Path_5097" data-name="Path 5097" d="M43.817,277.74a5.031,5.031,0,1,0-8.621,0,5.477,5.477,0,0,0-1.748,1.279,7.485,7.485,0,0,0-4.36-4.528,6.811,6.811,0,1,0-11.17,0,7.485,7.485,0,0,0-4.36,4.527,5.472,5.472,0,0,0-1.748-1.279,5.031,5.031,0,1,0-8.62,0,5.474,5.474,0,0,0-3.185,4.94v2.974a.918.918,0,0,0,.918.918H19.382a.918.918,0,1,0,0-1.836H14.994v-3.344a5.594,5.594,0,0,1,4.335-5.416,6.789,6.789,0,0,0,8.348,0,5.594,5.594,0,0,1,4.335,5.417v3.344H27.625a.918.918,0,1,0,0,1.836H46.086a.918.918,0,0,0,.918-.918V282.68A5.473,5.473,0,0,0,43.817,277.74ZM7.5,271.954a3.195,3.195,0,1,1-3.2,3.2A3.2,3.2,0,0,1,7.5,271.954Zm-5.66,12.783V282.68A3.622,3.622,0,0,1,4.527,279.2a5.018,5.018,0,0,0,5.947,0,3.622,3.622,0,0,1,2.685,3.477v2.056ZM18.528,270.6a4.976,4.976,0,1,1,4.976,4.976A4.981,4.981,0,0,1,18.528,270.6Zm20.98,1.355a3.195,3.195,0,1,1-3.2,3.2A3.2,3.2,0,0,1,39.508,271.954Zm-5.66,10.726a3.622,3.622,0,0,1,2.686-3.477,5.017,5.017,0,0,0,5.947,0,3.623,3.623,0,0,1,2.687,3.477v2.056H33.848Z" transform="translate(-0.005 -239.572)" fill="#fff"/>
        <path id="Path_5098" data-name="Path 5098" d="M204.254,55.813h-23.9a.918.918,0,0,0,0,1.836h23.9a.918.918,0,1,0,0-1.836Z" transform="translate(-162.961 -50.69)" fill="#fff"/>
        <path id="Path_5099" data-name="Path 5099" d="M53.051,57.649h6.825a.918.918,0,1,0,0-1.836H53.051a.918.918,0,0,0,0,1.836Z" transform="translate(-47.348 -50.69)" fill="#fff"/>
        <path id="Path_5100" data-name="Path 5100" d="M373.257,111.626h-6.822a.918.918,0,0,0,0,1.836h6.822a.918.918,0,0,0,0-1.836Z" transform="translate(-331.964 -101.379)" fill="#fff"/>
        <path id="Path_5101" data-name="Path 5101" d="M76.956,111.626h-23.9a.918.918,0,0,0,0,1.836h23.9a.918.918,0,0,0,0-1.836Z" transform="translate(-47.348 -101.379)" fill="#fff"/>
        <path id="Path_5102" data-name="Path 5102" d="M246.9,492a.918.918,0,0,0,0,1.836h.005A.918.918,0,1,0,246.9,492Z" transform="translate(-223.406 -446.836)" fill="#fff"/>
      </g>
    </g>
    <path id="Path_5103" data-name="Path 5103" d="M0,0H45V15l-3.93.5-1.508,4.164L34.25,15.5H26.066l-3.66,3.59L19.535,15.5H10.563L5.25,18.657,4.821,15H0Z" transform="translate(372 1311)" fill="#fff" opacity="0.29"/>
  </g>
</svg>
