<svg xmlns="http://www.w3.org/2000/svg" width="49.989" height="49.991" viewBox="0 0 49.989 49.991">
  <g id="Group_491" data-name="Group 491" transform="translate(-1119 -1309)">
    <g id="XMLID_1769_" transform="translate(1118.99 1309)">
      <g id="XMLID_1115_" transform="translate(0.01 0)">
        <path id="XMLID_1430_" d="M49.023,40.228H47.07V17.381A4.887,4.887,0,0,0,42.188,12.5H40.821V7a.976.976,0,0,0-.286-.69L34.508.286A.977.977,0,0,0,33.818,0H10.164a.977.977,0,0,0-.975,1.007V12.5H7.821a4.887,4.887,0,0,0-4.882,4.882V40.228H.986A.976.976,0,0,0,.01,41.2v3.905a4.887,4.887,0,0,0,4.882,4.882H45.117A4.887,4.887,0,0,0,50,45.109V41.2A.976.976,0,0,0,49.023,40.228ZM34.794,3.333l2.694,2.694H34.794ZM4.892,17.381a2.932,2.932,0,0,1,2.929-2.929H9.189V36.517a.976.976,0,0,0,.976.976H20.6a.976.976,0,1,0,0-1.953H11.142V1.953h21.7V7a.976.976,0,0,0,.976.976h5.051v27.56H29.386a.976.976,0,0,0,0,1.953H39.845a.976.976,0,0,0,.976-.976V14.452h1.367a2.932,2.932,0,0,1,2.929,2.929V40.228H4.891V17.381ZM48.046,45.109a2.932,2.932,0,0,1-2.929,2.929H4.892a2.932,2.932,0,0,1-2.929-2.929V42.18H48.046Z" transform="translate(-0.01 0)" fill="#fff"/>
        <path id="XMLID_1441_" d="M217.11,453.974h5.809a.976.976,0,1,0,0-1.953H217.11a.976.976,0,1,0,0,1.953Z" transform="translate(-195.033 -407.888)" fill="#fff"/>
        <path id="XMLID_1449_" d="M139.113,122.622H160.2a.976.976,0,0,0,.976-.976V110.71a.976.976,0,0,0-.976-.976H139.113a.976.976,0,0,0-.976.976v10.935A.976.976,0,0,0,139.113,122.622Zm.976-5.468H143.6v3.515H140.09Zm13.669,0v3.515h-8.2v-3.515Zm-8.2-1.953v-3.515h8.2V115.2Zm10.154,5.468v-3.515h3.515v3.515Zm3.515-5.468h-3.515v-3.515h3.515ZM143.6,111.687V115.2H140.09v-3.515Z" transform="translate(-124.651 -99.02)" fill="#fff"/>
        <path id="XMLID_1522_" d="M161.179,267.117a.976.976,0,0,0-.976-.976H139.113a.976.976,0,0,0,0,1.953H160.2A.976.976,0,0,0,161.179,267.117Z" transform="translate(-124.651 -240.156)" fill="#fff"/>
        <path id="XMLID_1523_" d="M304.581,310.141h-5.468a.976.976,0,1,0,0,1.953h5.468a.976.976,0,1,0,0-1.953Z" transform="translate(-269.029 -279.86)" fill="#fff"/>
        <path id="XMLID_1524_" d="M246.856,364.014a.977.977,0,1,0,.69.286A.984.984,0,0,0,246.856,364.014Z" transform="translate(-221.874 -328.473)" fill="#fff"/>
      </g>
    </g>
    <path id="Path_5110" data-name="Path 5110" d="M0,0H22.575l2.142,4.665,4.154,1.573.695,29.453H0Z" transform="translate(1129 1310)" fill="#fff" opacity="0.29"/>
  </g>
</svg>
