<svg xmlns="http://www.w3.org/2000/svg" width="52.549" height="52.549" viewBox="0 0 52.549 52.549">
  <g id="Group_478" data-name="Group 478" transform="translate(-1500 -442)">
    <circle id="Ellipse_442" data-name="Ellipse 442" cx="16" cy="16" r="16" transform="translate(1509.799 452)" fill="#fff" opacity="0.29"/>
    <g id="Group_477" data-name="Group 477">
      <g id="user" transform="translate(1500 442)">
        <g id="Group_145" data-name="Group 145">
          <path id="Path_2195" data-name="Path 2195" d="M42.577,27.044h2.289a3.88,3.88,0,1,0,0-1.54H42.577A16.258,16.258,0,0,0,38.341,15.3l4.122-4.122a4.925,4.925,0,1,0-1.089-1.089l-4.122,4.122A16.258,16.258,0,0,0,27.044,9.972V7.683a3.88,3.88,0,1,0-1.54,0V9.972A16.259,16.259,0,0,0,15.3,14.207l-4.122-4.122A4.912,4.912,0,0,0,9.946,3.119.77.77,0,0,0,9.085,4.4a3.377,3.377,0,1,1-2.81-.449.77.77,0,0,0-.42-1.481,4.917,4.917,0,1,0,4.231,8.708L14.207,15.3A16.258,16.258,0,0,0,9.972,25.5H7.683a3.88,3.88,0,1,0,0,1.54H9.972a16.258,16.258,0,0,0,4.236,10.209l-4.122,4.122a4.925,4.925,0,1,0,1.089,1.089L15.3,38.341A16.258,16.258,0,0,0,25.5,42.577v2.288a3.88,3.88,0,1,0,1.54,0V42.577a16.259,16.259,0,0,0,10.209-4.236l4.122,4.122a4.914,4.914,0,1,0,8.642,1.33.77.77,0,1,0-1.46.487,3.376,3.376,0,1,1-1.969-2.073.77.77,0,0,0,.563-1.433,4.912,4.912,0,0,0-4.686.6l-4.122-4.122a16.26,16.26,0,0,0,4.236-10.209Zm6.092-3.11a2.341,2.341,0,1,1-2.341,2.341A2.343,2.343,0,0,1,48.669,23.934ZM45.351,3.82A3.377,3.377,0,1,1,41.974,7.2,3.381,3.381,0,0,1,45.351,3.82Zm-21.417.06a2.341,2.341,0,1,1,2.341,2.341A2.343,2.343,0,0,1,23.934,3.88ZM3.88,28.615a2.341,2.341,0,1,1,2.34-2.341A2.343,2.343,0,0,1,3.88,28.615ZM26.274,11.493A14.782,14.782,0,1,1,11.493,26.274,14.8,14.8,0,0,1,26.274,11.493ZM7.2,48.728a3.377,3.377,0,1,1,3.377-3.377A3.381,3.381,0,0,1,7.2,48.728Zm21.417-.06a2.341,2.341,0,1,1-2.341-2.341A2.343,2.343,0,0,1,28.615,48.669Z" fill="#fff"/>
          <path id="Path_2196" data-name="Path 2196" d="M164.422,168.1h6.912a.77.77,0,0,0,0-1.54h-1.789v-1.3a.77.77,0,0,0-1.54,0v1.3h-2.815v-3.791a3.381,3.381,0,0,1,3.377-3.378h9.124a3.381,3.381,0,0,1,3.377,3.378v3.791h-2.815v-1.3a.77.77,0,0,0-1.54,0v1.3h-1.788a.77.77,0,0,0,0,1.54h6.912a.77.77,0,0,0,.77-.77v-4.561a4.922,4.922,0,0,0-4.916-4.917h-.571a5.954,5.954,0,1,0-7.981,0h-.572a4.922,4.922,0,0,0-4.916,4.917v4.561a.769.769,0,0,0,.77.77Zm4.294-14.662a4.414,4.414,0,1,1,4.414,4.414A4.419,4.419,0,0,1,168.716,153.438Z" transform="translate(-146.856 -132.347)" fill="#fff"/>
        </g>
      </g>
    </g>
  </g>
</svg>
