<svg xmlns="http://www.w3.org/2000/svg" width="48.4" height="48.4" viewBox="0 0 48.4 48.4">
  <g id="Group_481" data-name="Group 481" transform="translate(-742 -877)">
    <g id="Outline" transform="translate(740 875)">
      <path id="Path_2337" data-name="Path 2337" d="M47.98,2H4.42A2.42,2.42,0,0,0,2,4.42V47.98A2.42,2.42,0,0,0,4.42,50.4H47.98a2.42,2.42,0,0,0,2.42-2.42V4.42A2.42,2.42,0,0,0,47.98,2Zm.807,45.98a.807.807,0,0,1-.807.807H4.42a.807.807,0,0,1-.807-.807V10.067H48.787ZM3.613,8.453V4.42a.807.807,0,0,1,.807-.807H47.98a.807.807,0,0,1,.807.807V8.453Z" transform="translate(0)" fill="#fff"/>
      <path id="Path_2338" data-name="Path 2338" d="M6.5,6.065a.726.726,0,0,0-.436.436.76.76,0,0,0,0,.613.833.833,0,0,0,.169.266A.932.932,0,0,0,6.5,7.55a.807.807,0,0,0,.307.065A.988.988,0,0,0,6.96,7.6a.484.484,0,0,0,.153-.048.611.611,0,0,0,.145-.073,1.271,1.271,0,0,0,.121-.1A.805.805,0,0,0,6.5,6.065Z" transform="translate(-0.773 -0.774)" fill="#fff"/>
      <path id="Path_2339" data-name="Path 2339" d="M11.113,6.064a.739.739,0,0,0-.613,0,.726.726,0,0,0-.436.436.76.76,0,0,0,0,.613.832.832,0,0,0,.169.266.932.932,0,0,0,.266.169.761.761,0,0,0,.613,0,.832.832,0,0,0,.266-.169.818.818,0,0,0,0-1.145A.832.832,0,0,0,11.113,6.064Z" transform="translate(-1.547 -0.773)" fill="#fff"/>
      <path id="Path_2340" data-name="Path 2340" d="M15.379,6.234a.807.807,0,0,0-.879-.169.932.932,0,0,0-.266.169.832.832,0,0,0-.169.266.76.76,0,0,0,0,.613.832.832,0,0,0,.169.266.932.932,0,0,0,.266.169.807.807,0,0,0,.307.065.849.849,0,0,0,.573-.234.832.832,0,0,0,.169-.266.761.761,0,0,0,0-.613A.832.832,0,0,0,15.379,6.234Z" transform="translate(-2.32 -0.774)" fill="#fff"/>
      <path id="Path_2341" data-name="Path 2341" d="M8.42,49.494H45.527a2.42,2.42,0,0,0,2.42-2.42V16.42A2.42,2.42,0,0,0,45.527,14h-24.2a2.42,2.42,0,0,0-2.42,2.42v8.873H8.42A2.42,2.42,0,0,0,6,27.713v19.36A2.42,2.42,0,0,0,8.42,49.494Zm-.807-2.42v-.807H20.52v.807a.807.807,0,0,1-.807.807H8.42A.807.807,0,0,1,7.613,47.074Zm0-16.94H20.52v14.52H7.613ZM46.334,43.04h-24.2V27.713a2.42,2.42,0,0,0-1.613-2.272V20.453H46.334ZM33.427,47.074a.807.807,0,1,1,.807-.807A.807.807,0,0,1,33.427,47.074Zm-1.791.807H21.985a2.393,2.393,0,0,0,.148-.807v-2.42h9.5A2.383,2.383,0,0,0,31.636,47.88Zm13.891,0H35.218a2.383,2.383,0,0,0,0-3.227H46.334v2.42A.807.807,0,0,1,45.527,47.88Zm-24.2-32.267h24.2a.807.807,0,0,1,.807.807v2.42H20.52V16.42A.807.807,0,0,1,21.327,15.613ZM8.42,26.907H19.713a.807.807,0,0,1,.807.807v.807H7.613v-.807A.807.807,0,0,1,8.42,26.907Z" transform="translate(-0.773 -2.32)" fill="#fff"/>
      <path id="Path_2342" data-name="Path 2342" d="M39.807,18.616a.849.849,0,0,0,.573-.234.833.833,0,0,0,.234-.573.807.807,0,0,0-.065-.307.753.753,0,0,0-.169-.266.845.845,0,0,0-1.145,0,.753.753,0,0,0-.169.266.807.807,0,0,0-.065.307.833.833,0,0,0,.234.573A.849.849,0,0,0,39.807,18.616Z" transform="translate(-7.153 -2.902)" fill="#fff"/>
    </g>
    <path id="Path_5067" data-name="Path 5067" d="M0,0H28V24L1.465,23.523V7.16L0,4.644Z" transform="translate(759 893)" fill="#fff" opacity="0.3"/>
  </g>
</svg>
