<svg xmlns="http://www.w3.org/2000/svg" xmlns:xlink="http://www.w3.org/1999/xlink" width="58.332" height="50.321" viewBox="0 0 58.332 50.321">
  <defs>
    <linearGradient id="linear-gradient" x1="0.5" x2="0.5" y2="1" gradientUnits="objectBoundingBox">
      <stop offset="0" stop-color="#f06cff"/>
      <stop offset="1" stop-color="#0982df"/>
    </linearGradient>
  </defs>
  <g id="cloud" transform="translate(0 -35.158)">
    <path id="Path_3873" data-name="Path 3873" d="M180.85,223.757h-8.359a.854.854,0,1,0,0,1.709h8.359a.854.854,0,0,0,0-1.709Z" transform="translate(-152.082 -167.112)" fill="url(#linear-gradient)"/>
    <path id="Path_3874" data-name="Path 3874" d="M180.85,253.707h-8.359a.854.854,0,1,0,0,1.709h8.359a.854.854,0,0,0,0-1.709Z" transform="translate(-152.082 -193.65)" fill="url(#linear-gradient)"/>
    <path id="Path_3875" data-name="Path 3875" d="M160.058,190.052a.855.855,0,0,0-.6-.25H144a2.508,2.508,0,0,0-2.505,2.505V220A2.508,2.508,0,0,0,144,222.5h21.08A2.508,2.508,0,0,0,167.588,220V197.937a.855.855,0,0,0-.25-.6Zm.25,2.667,4.363,4.363H160.7a.393.393,0,0,1-.393-.393Zm4.775,28.076H144a.8.8,0,0,1-.8-.8V192.307a.8.8,0,0,1,.8-.8h14.6v5.179a2.1,2.1,0,0,0,2.1,2.1h5.179V220A.8.8,0,0,1,165.083,220.8Z" transform="translate(-125.377 -137.025)" fill="url(#linear-gradient)"/>
    <path id="Path_3876" data-name="Path 3876" d="M50.266,56.8A12.279,12.279,0,0,0,38.676,45.4,16.064,16.064,0,0,0,7.649,50.643a13.027,13.027,0,0,0,5.375,24.892.854.854,0,1,0,0-1.709A11.318,11.318,0,0,1,8.812,52a.855.855,0,0,0,.536-.792,14.355,14.355,0,0,1,27.918-4.691.854.854,0,0,0,.8.575A10.568,10.568,0,0,1,48.587,57.578a.855.855,0,0,0,.8.846,7.708,7.708,0,0,1-.475,15.4H45.333a.854.854,0,1,0,0,1.709h3.583A9.418,9.418,0,0,0,50.266,56.8Z" fill="url(#linear-gradient)"/>
  </g>
</svg>
