<svg xmlns="http://www.w3.org/2000/svg" width="32.716" height="39.591" viewBox="0 0 32.716 39.591">
  <g id="interaction" transform="translate(0)">
    <path id="Path_4018" data-name="Path 4018" d="M120.993,448.333v1.406a.58.58,0,1,0,1.16,0v-1.406a.58.58,0,1,0-1.16,0Z" transform="translate(-115.074 -413.13)" fill="#fff"/>
    <path id="Path_4019" data-name="Path 4019" d="M47.831,21.546a1.815,1.815,0,0,0-3.2,1.691l2.391,5.471.006.014a7.225,7.225,0,0,0,1.77,2.194,2.07,2.07,0,0,1,.31,1.312,1.248,1.248,0,0,0-1.115,1.239v4.878a1.248,1.248,0,0,0,1.246,1.246H52.29a.58.58,0,0,0,0-1.16H49.238a.086.086,0,0,1-.086-.086V33.467a.086.086,0,0,1,.086-.086h8.811a.086.086,0,0,1,.086.086v4.878a.086.086,0,0,1-.086.086H55a.58.58,0,0,0,0,1.16h3.052a1.248,1.248,0,0,0,1.246-1.246V33.467a1.247,1.247,0,0,0-1.061-1.231v-.462c0-1.374,1.741-1.388,1.739-3.787v-1.1a.58.58,0,0,0-.58-.579h0a.58.58,0,0,0-.579.58v1.1a2.114,2.114,0,0,1-.777,1.724,2.729,2.729,0,0,0-.962,2.062v.446H50.266a2.98,2.98,0,0,0-.654-2.129,6.329,6.329,0,0,1-1.533-1.857L45.69,22.767l0-.011c-.3-.655.613-1.361,1.207-.529l.011.014,1.935,2.54a.788.788,0,0,0,1.413-.477V14.5a.633.633,0,1,1,1.266,0c0,8.288,0,6.557,0,8.853a.58.58,0,0,0,1.16,0c0-2.441.018-.9.018-2.956a.633.633,0,0,1,1.266,0v2.956a.58.58,0,1,0,1.16,0V20.724a.633.633,0,1,1,1.266,0v2.628a.58.58,0,0,0,1.16,0V20.97a.633.633,0,1,1,1.266,0c0,1.5,0,1.718,0,3.216a.58.58,0,0,0,.58.58h0a.58.58,0,0,0,.579-.58c0-.333,0-1.2,0-3.215A1.792,1.792,0,0,0,57.1,19.54a1.79,1.79,0,0,0-2.383-.277,1.806,1.806,0,0,0-.487-.415,6.378,6.378,0,0,0,3-4.852h3.628V23.07a1.465,1.465,0,0,0,1.463,1.463h2.321v.75a1.549,1.549,0,0,0,1.547,1.547h9.433a1.549,1.549,0,0,0,1.548-1.547V22.623a1.549,1.549,0,0,0-1.548-1.547H66.191a1.549,1.549,0,0,0-1.547,1.547v.75H62.323a.3.3,0,0,1-.3-.3V17.508h2.624v.75a1.549,1.549,0,0,0,1.547,1.547h9.433a1.549,1.549,0,0,0,1.548-1.547V15.6a1.549,1.549,0,0,0-1.548-1.548H66.191A1.549,1.549,0,0,0,64.643,15.6v.75H62.019V10.483h2.624v.75a1.549,1.549,0,0,0,1.547,1.548h9.433a1.549,1.549,0,0,0,1.548-1.548V8.573a1.549,1.549,0,0,0-1.548-1.547H66.191a1.549,1.549,0,0,0-1.547,1.547v.75H62.019V3.761a.3.3,0,0,1,.3-.3h2.321v.75a1.549,1.549,0,0,0,1.547,1.547h9.433a1.549,1.549,0,0,0,1.548-1.547V1.547A1.549,1.549,0,0,0,75.624,0H66.191a1.549,1.549,0,0,0-1.547,1.547V2.3H62.323a1.465,1.465,0,0,0-1.463,1.463v9.074H57.23a6.39,6.39,0,1,0-8.139,6.718V23.2ZM65.8,22.623a.393.393,0,0,1,.388-.388h9.433a.393.393,0,0,1,.388.388v2.661a.393.393,0,0,1-.388.388H66.191a.393.393,0,0,1-.388-.388V22.623Zm0-7.025a.393.393,0,0,1,.388-.388h9.433a.393.393,0,0,1,.388.388v2.661a.393.393,0,0,1-.388.388H66.191a.393.393,0,0,1-.388-.388V15.6Zm0-7.025a.393.393,0,0,1,.388-.388h9.433a.393.393,0,0,1,.388.388v2.661a.393.393,0,0,1-.388.388H66.191a.393.393,0,0,1-.388-.388V8.573Zm0-7.025a.393.393,0,0,1,.388-.388h9.433a.393.393,0,0,1,.388.388V4.208a.393.393,0,0,1-.388.388H66.191a.393.393,0,0,1-.388-.388V1.547ZM50.882,12.706h0a1.793,1.793,0,0,0-1.789,1.8v1.143a2.852,2.852,0,1,1,3.586-.029V14.5A1.8,1.8,0,0,0,50.882,12.706Zm-5.245.71a5.231,5.231,0,1,1,7.041,4.907v-1.33a4.01,4.01,0,1,0-3.586.018v1.325a5.256,5.256,0,0,1-3.455-4.921Z" transform="translate(-44.455 0)" fill="#fff"/>
  </g>
</svg>
