<svg id="dashboard" xmlns="http://www.w3.org/2000/svg" width="35.03" height="35.03" viewBox="0 0 35.03 35.03">
  <path id="Path_4020" data-name="Path 4020" d="M32.64,19.944V8.865a3.953,3.953,0,1,0-4.52-3.91H1v22.6H17.979A9.034,9.034,0,1,0,32.64,19.944ZM32.075,2.13A2.825,2.825,0,1,1,29.25,4.955,2.828,2.828,0,0,1,32.075,2.13ZM2.13,6.085H28.287a3.952,3.952,0,0,0,.625,1.235l-3.456,3.456a1.636,1.636,0,0,0-1.453,0L22.865,9.637a1.679,1.679,0,0,0,.17-.727,1.695,1.695,0,0,0-3.39,0,1.667,1.667,0,0,0,.17.726l-2.833,2.833a1.679,1.679,0,0,0-.727-.17,1.695,1.695,0,1,0,1.695,1.695,1.667,1.667,0,0,0-.17-.726l2.833-2.833a1.638,1.638,0,0,0,1.453,0L23.2,11.573a1.679,1.679,0,0,0-.17.727,1.695,1.695,0,1,0,3.39,0,1.667,1.667,0,0,0-.17-.726l3.456-3.456a3.931,3.931,0,0,0,1.8.747V19.174a8.985,8.985,0,0,0-11.3,1.857V18.515H16.82v6.78h1.295a9.064,9.064,0,0,0-.136,1.13H2.13Zm22.6,5.65a.565.565,0,1,1-.565.565A.566.566,0,0,1,24.73,11.735ZM20.775,8.91a.565.565,0,1,1,.565.565A.566.566,0,0,1,20.775,8.91ZM16.82,13.995a.565.565,0,1,1-.565-.565A.566.566,0,0,1,16.82,13.995ZM26.99,31.51a4.52,4.52,0,1,1,4.52-4.52A4.525,4.525,0,0,1,26.99,31.51Zm-7.91-8.887a8.972,8.972,0,0,0-.672,1.542H17.95v-4.52h1.13Zm7.345-3.514v2.26a5.638,5.638,0,0,0-4.582,7.94l-1.96,1.132a7.883,7.883,0,0,1,6.542-11.332ZM26.99,34.9a7.906,7.906,0,0,1-6.547-3.478l1.968-1.136a5.631,5.631,0,0,0,9.159,0l1.968,1.136A7.906,7.906,0,0,1,26.99,34.9ZM34.1,30.44l-1.96-1.132a5.638,5.638,0,0,0-4.582-7.94v-2.26A7.883,7.883,0,0,1,34.1,30.44Z" transform="translate(-1 -1)" fill="#fff"/>
  <path id="Path_4021" data-name="Path 4021" d="M44.39,41a3.39,3.39,0,1,0,3.39,3.39A3.393,3.393,0,0,0,44.39,41Zm0,5.65a2.26,2.26,0,1,1,2.26-2.26A2.262,2.262,0,0,1,44.39,46.65Z" transform="translate(-18.4 -18.4)" fill="#fff"/>
  <path id="Path_4022" data-name="Path 4022" d="M5,12H6.13v1.13H5Z" transform="translate(-2.74 -5.785)" fill="#fff"/>
  <path id="Path_4023" data-name="Path 4023" d="M9,12h7.91v1.13H9Z" transform="translate(-4.48 -5.785)" fill="#fff"/>
  <path id="Path_4024" data-name="Path 4024" d="M5,16H6.13v1.13H5Z" transform="translate(-2.74 -7.525)" fill="#fff"/>
  <path id="Path_4025" data-name="Path 4025" d="M9,16h7.91v1.13H9Z" transform="translate(-4.48 -7.525)" fill="#fff"/>
  <path id="Path_4026" data-name="Path 4026" d="M5,20H6.13v1.13H5Z" transform="translate(-2.74 -9.265)" fill="#fff"/>
  <path id="Path_4027" data-name="Path 4027" d="M9,20h7.91v1.13H9Z" transform="translate(-4.48 -9.265)" fill="#fff"/>
  <path id="Path_4028" data-name="Path 4028" d="M5,24H6.13v1.13H5Z" transform="translate(-2.74 -11.005)" fill="#fff"/>
  <path id="Path_4029" data-name="Path 4029" d="M9,24h7.91v1.13H9Z" transform="translate(-4.48 -11.005)" fill="#fff"/>
  <path id="Path_4030" data-name="Path 4030" d="M5,39.65H8.39V34H5Zm1.13-4.52H7.26v3.39H6.13Z" transform="translate(-2.74 -15.355)" fill="#fff"/>
  <path id="Path_4031" data-name="Path 4031" d="M13,40.52h3.39V36H13Zm1.13-3.39h1.13v2.26H14.13Z" transform="translate(-6.22 -16.225)" fill="#fff"/>
  <path id="Path_4032" data-name="Path 4032" d="M21,37.04h3.39V28H21Zm1.13-7.91h1.13v6.78H22.13Z" transform="translate(-9.7 -12.745)" fill="#fff"/>
</svg>
