<svg id="user" xmlns="http://www.w3.org/2000/svg" width="37.151" height="37.151" viewBox="0 0 37.151 37.151">
  <g id="Group_145" data-name="Group 145">
    <path id="Path_2195" data-name="Path 2195" d="M30.1,19.12h1.618a2.743,2.743,0,1,0,0-1.088H30.1a11.494,11.494,0,0,0-2.995-7.217L30.021,7.9a3.482,3.482,0,1,0-.77-.77l-2.914,2.914A11.494,11.494,0,0,0,19.12,7.05V5.432a2.743,2.743,0,1,0-1.088,0V7.05a11.5,11.5,0,0,0-7.217,2.994L7.9,7.13a3.473,3.473,0,0,0-.868-4.925.544.544,0,0,0-.609.9A2.387,2.387,0,1,1,4.436,2.79a.544.544,0,0,0-.3-1.047A3.476,3.476,0,1,0,7.13,7.9l2.914,2.914A11.494,11.494,0,0,0,7.05,18.031H5.432a2.743,2.743,0,1,0,0,1.088H7.05a11.494,11.494,0,0,0,2.995,7.217L7.13,29.251a3.482,3.482,0,1,0,.77.77l2.914-2.914A11.494,11.494,0,0,0,18.031,30.1v1.618a2.743,2.743,0,1,0,1.088,0V30.1a11.5,11.5,0,0,0,7.217-2.994l2.914,2.914a3.474,3.474,0,1,0,6.109.94.544.544,0,1,0-1.033.344,2.387,2.387,0,1,1-1.392-1.466.544.544,0,0,0,.4-1.013,3.473,3.473,0,0,0-3.313.425l-2.914-2.914A11.5,11.5,0,0,0,30.1,19.12Zm4.307-2.2a1.655,1.655,0,1,1-1.655,1.655A1.657,1.657,0,0,1,34.408,16.921ZM32.062,2.7a2.388,2.388,0,1,1-2.388,2.388A2.39,2.39,0,0,1,32.062,2.7Zm-15.141.042A1.655,1.655,0,1,1,18.575,4.4,1.657,1.657,0,0,1,16.921,2.743ZM2.743,20.23A1.655,1.655,0,1,1,4.4,18.575,1.657,1.657,0,0,1,2.743,20.23ZM18.575,8.125a10.45,10.45,0,1,1-10.45,10.45,10.462,10.462,0,0,1,10.45-10.45ZM5.089,34.45a2.388,2.388,0,1,1,2.388-2.388A2.39,2.39,0,0,1,5.089,34.45Zm15.141-.042a1.655,1.655,0,1,1-1.655-1.655A1.657,1.657,0,0,1,20.23,34.408Z" fill="#fff"/>
    <path id="Path_2196" data-name="Path 2196" d="M164.2,162.059h4.887a.544.544,0,0,0,0-1.088h-1.265v-.922a.544.544,0,0,0-1.088,0v.922h-1.99v-2.68a2.39,2.39,0,0,1,2.387-2.388h6.451a2.39,2.39,0,0,1,2.387,2.388v2.68h-1.99v-.922a.544.544,0,0,0-1.088,0v.922h-1.264a.544.544,0,0,0,0,1.088h4.887a.544.544,0,0,0,.544-.544V158.29a3.48,3.48,0,0,0-3.476-3.476h-.4a4.209,4.209,0,1,0-5.643,0h-.4a3.48,3.48,0,0,0-3.476,3.476v3.225A.544.544,0,0,0,164.2,162.059Zm3.036-10.366a3.121,3.121,0,1,1,3.121,3.121A3.124,3.124,0,0,1,167.232,151.693Z" transform="translate(-151.777 -136.783)" fill="#fff"/>
  </g>
</svg>
