<svg id="user_1_" data-name="user (1)" xmlns="http://www.w3.org/2000/svg" width="36.571" height="23.851" viewBox="0 0 36.571 23.851">
  <g id="Group_184" data-name="Group 184" transform="translate(12.72 0)">
    <g id="Group_183" data-name="Group 183">
      <path id="Path_3109" data-name="Path 3109" d="M176.231,85.333A5.565,5.565,0,1,0,181.8,90.9,5.571,5.571,0,0,0,176.231,85.333Zm0,9.54a3.975,3.975,0,1,1,3.975-3.975A3.981,3.981,0,0,1,176.231,94.873Z" transform="translate(-170.666 -85.333)" fill="#fff"/>
    </g>
  </g>
  <g id="Group_186" data-name="Group 186" transform="translate(25.441 6.36)">
    <g id="Group_185" data-name="Group 185">
      <path id="Path_3110" data-name="Path 3110" d="M345.309,170.667a3.975,3.975,0,1,0,3.975,3.975A3.981,3.981,0,0,0,345.309,170.667Zm0,6.36a2.385,2.385,0,1,1,2.385-2.385A2.388,2.388,0,0,1,345.309,177.027Z" transform="translate(-341.334 -170.667)" fill="#fff"/>
    </g>
  </g>
  <g id="Group_188" data-name="Group 188" transform="translate(3.293 6.36)">
    <g id="Group_187" data-name="Group 187">
      <path id="Path_3111" data-name="Path 3111" d="M48.157,170.667a3.975,3.975,0,1,0,3.975,3.975A3.98,3.98,0,0,0,48.157,170.667Zm0,6.36a2.385,2.385,0,1,1,2.385-2.385A2.388,2.388,0,0,1,48.157,177.027Z" transform="translate(-44.182 -170.667)" fill="#fff"/>
    </g>
  </g>
  <g id="Group_190" data-name="Group 190" transform="translate(7.95 12.72)">
    <g id="Group_189" data-name="Group 189">
      <path id="Path_3112" data-name="Path 3112" d="M117,256a10.347,10.347,0,0,0-10.335,10.335.8.8,0,1,0,1.59,0,8.745,8.745,0,1,1,17.49,0,.8.8,0,1,0,1.59,0A10.347,10.347,0,0,0,117,256Z" transform="translate(-106.666 -256)" fill="#fff"/>
    </g>
  </g>
  <g id="Group_192" data-name="Group 192" transform="translate(25.327 15.9)">
    <g id="Group_191" data-name="Group 191" transform="translate(0 0)">
      <path id="Path_3113" data-name="Path 3113" d="M343.9,298.667A7.156,7.156,0,0,0,340.2,299.7a.8.8,0,0,0,.825,1.359,5.566,5.566,0,0,1,8.446,4.762.8.8,0,0,0,1.59,0A7.164,7.164,0,0,0,343.9,298.667Z" transform="translate(-339.813 -298.667)" fill="#fff"/>
    </g>
  </g>
  <g id="Group_194" data-name="Group 194" transform="translate(0 15.9)">
    <g id="Group_193" data-name="Group 193" transform="translate(0 0)">
      <path id="Path_3114" data-name="Path 3114" d="M10.86,299.7A7.158,7.158,0,0,0,0,305.822a.8.8,0,1,0,1.59,0,5.567,5.567,0,0,1,8.445-4.764.8.8,0,1,0,.825-1.359Z" transform="translate(0 -298.667)" fill="#fff"/>
    </g>
  </g>
</svg>
